<?xml version="1.0" encoding="utf-8" ?><svg xmlns="http://www.w3.org/2000/svg" xmlns:xlink="http://www.w3.org/1999/xlink" width="2242" height="870" viewBox="0 0 2242 870"><path fill="#FDB874" transform="scale(1.00016 1.00041)" d="M1703.1 155.027C1718 167.75 1732.61 180.958 1747.29 193.943C1779.44 225.727 1813.79 252.873 1844.31 286.477C1846.46 271.019 1844.16 257.999 1842.22 246.976C1840.44 236.889 1838.95 228.475 1841.44 221.396C1849.64 213.367 1861.89 216.335 1863.28 228.346C1860.97 235.757 1859.17 237.19 1853.68 242.325L1852.03 243.863C1851.42 258.527 1851.47 273.628 1851.52 288.489C1851.53 291.832 1851.54 295.163 1851.54 298.474L1918.44 298.474C1924.03 291.221 1927.08 287.205 1936.56 286.845C1946.38 291.491 1947.47 298.162 1942.32 307.76C1942.12 307.914 1941.88 308.093 1941.62 308.288C1939.61 309.808 1936.28 312.317 1934.55 311.558C1913.91 302.479 1891.43 303.275 1868.36 304.091C1862.83 304.286 1857.27 304.483 1851.69 304.545C1851.02 316.425 1851.06 328.576 1851.09 340.583C1851.1 343.312 1851.11 346.035 1851.11 348.744L1919.34 347.92C1926.06 340.992 1927.21 340.196 1935.55 339.056C1945.31 343.627 1946.12 349.265 1942.34 359.295C1939.67 361.813 1938.98 362.771 1938.04 363.201C1937.09 363.641 1935.89 363.531 1932.05 363.973C1925.27 361.956 1923.36 359.002 1918.42 353.894C1895.28 353.421 1874.4 353.237 1851.2 353.911C1850.71 368.053 1850.85 381.767 1850.99 395.86L1851.02 398.377C1897.27 399.329 1935.21 400.054 1981.37 397.421L1994.52 382.008C1996.11 328.201 1996.32 277.273 1996.32 223.426C1981.14 213.262 1966.03 202.146 1951.17 191.456C1910.15 189.187 1862.4 189.701 1817.68 190.181C1802.74 190.342 1788.14 190.499 1774.24 190.547L1749.92 190.593C1727.4 169.771 1705.15 149.353 1684.42 126.761C1683.12 125.339 1678.18 124.233 1676.04 124.36L1674.61 127.309C1681.22 142.247 1691.61 145.212 1703.1 155.027Z"/><path fill="#FDB874" transform="scale(1.00016 1.00041)" d="M650.533 256.548C615.121 255.548 572.311 254.339 547.446 256.231C466.209 258.83 463.636 302.079 466.84 371.807C467.147 378.486 467 386.395 466.842 394.955C466.266 426.089 465.53 465.837 485.868 486.341C514.036 508.117 566.341 506.28 607.097 504.849C615.548 504.553 623.503 504.273 630.642 504.226C644.613 504.072 669.403 497.36 676.68 487.113C689.62 468.899 688.631 421.215 687.951 388.442C687.788 380.536 687.642 373.498 687.714 367.951L569.22 368.225C569.209 369.344 569.161 370.849 569.104 372.601C568.82 381.422 568.336 396.495 571.43 400.012L649.618 400.035C649.658 403.232 649.719 406.424 649.781 409.613C650.137 428.183 650.491 446.607 646.651 464.836C625.053 472.07 517.625 486.74 511.018 455.812C502.682 416.798 500.702 338.162 513.604 300.891C519.872 282.788 632.234 286.803 673.626 288.282C678.942 288.472 683.087 288.62 685.687 288.674L685.651 257.407C675.835 257.263 663.695 256.92 650.533 256.548Z"/><path fill="#FDB874" transform="scale(1.00016 1.00041)" d="M938.565 256.978C894.761 256.677 850.506 256.372 807.822 257.074L807.858 505.322L1002.85 505.322L1002.81 473.575L846.519 473.575L846.575 396.823L872.811 396.823L982.225 396.583L982.168 365.295L846.237 365.295L846.463 288.706C884.983 287.299 926.594 287.799 966.718 288.281C978.825 288.426 990.797 288.57 1002.51 288.659L1002.28 257.3C981.308 257.272 959.991 257.125 938.565 256.978Z"/><path fill="#FDB874" transform="scale(1.00016 1.00041)" d="M416.362 408.49L270.436 408.49L270.436 531.254C286.324 542.519 302.468 554.254 318.497 565.239L339.912 565.419L339.859 504.69L338.124 503.118C314.457 481.517 342.641 466.365 355.723 481.883C357.608 489.607 354.611 495.756 351.596 501.942C348.599 508.092 345.584 514.279 347.33 522.088C347.337 523.026 347.345 523.968 347.352 524.908L347.409 565.419L417.053 565.419L416.362 408.49Z"/><path fill="#FDB874" transform="scale(1.00016 1.00041)" d="M1932.9 454.313C1905.33 454.099 1878.07 453.888 1850.1 454.802C1851.28 476.318 1851.67 494.697 1851.58 516.256C1854.85 516.352 1858.12 516.454 1861.39 516.556C1885.59 517.311 1909.69 518.062 1933.91 516.493C1934.79 515.86 1935.65 515.22 1936.5 514.588C1945.39 507.992 1953.21 502.191 1962.14 512.863C1964.3 523.723 1961.52 529.168 1950.93 531.647C1917.54 520.446 1901.55 521.126 1873.61 522.314C1867.04 522.593 1859.82 522.901 1851.56 523.089L1851.35 566.23C1882.96 564.683 1922.79 564.735 1954.72 565.584L1967.17 557.178C2015.47 524.343 2061.43 488.336 2109.15 454.836C2076.6 454.039 2044.21 454.203 2011.78 454.367C1996.29 454.445 1980.79 454.524 1965.26 454.498C1954.38 454.48 1943.62 454.396 1932.9 454.313Z"/><path fill="#FDB874" transform="scale(1.00016 1.00041)" d="M220.676 306.277C200.754 306.479 180.491 306.684 161.436 305.956C163.499 345.522 162.763 382.422 161.981 421.573C161.924 424.436 161.866 427.312 161.81 430.202L262.879 430.202L262.828 363.37L216.451 364.058C210.719 368.37 208.875 370.347 201.536 370.984C194.142 368.449 196.626 370.306 192.11 364.065C191.007 357.502 191.107 356.741 193.952 350.728C204.98 342.027 210.021 347.476 217.804 355.889C218.134 356.246 218.469 356.608 218.809 356.974L252.124 356.702C259.976 354.998 269.137 348.493 272.506 348.188C286.842 346.898 302.47 347.083 317.235 347.258C319.359 347.283 321.465 347.308 323.547 347.328L415.885 348.367L415.827 306.431L248.569 306.093C239.457 306.087 230.105 306.182 220.676 306.277Z"/><path fill="#FDB874" transform="scale(1.00016 1.00041)" d="M416.037 191.259L314.438 191.361C266.81 222.748 212.436 261.863 168.42 298.442C221.851 299.348 276.337 299.094 330.535 298.841C357.105 298.717 383.606 298.593 409.879 298.607L414.06 297.24C418.272 286.058 417.256 262.145 416.595 246.583C416.496 244.265 416.406 242.133 416.341 240.255L337.05 240.255C336.599 240.759 336.16 241.254 335.731 241.738C328.256 250.165 323.809 255.179 312.733 246.927C309.42 240.741 309.328 239.923 309.955 232.919C313.651 226.408 311.499 228.44 317.967 225.075C326.64 224.594 329.654 227.013 335.972 232.715L416.077 233.182L416.037 191.259Z"/><path fill="#FDB874" transform="scale(1.00016 1.00041)" d="M1454.9 257.159L1415.9 256.979L1416.59 505.497C1427.38 505.575 1438.23 505.675 1449.11 505.775C1499.25 506.237 1550.18 506.705 1599.76 505.082L1599.94 473.582L1454.55 473.582C1455.9 408.934 1455.47 343.052 1455.04 278.079C1454.99 271.094 1454.95 264.12 1454.9 257.159Z"/><path fill="#FDB874" transform="scale(1.00016 1.00041)" d="M1154.85 257.157L1116.5 257.157L1116.86 505.191C1130.84 505.105 1144.87 504.992 1158.91 504.88C1206.91 504.495 1255.14 504.109 1302.9 504.755C1302.95 502.594 1303.01 500.407 1303.07 498.206C1303.29 490.002 1303.52 481.597 1303.35 473.582L1154.66 473.582L1154.85 257.157Z"/><path fill="#FDB874" transform="scale(1.00016 1.00041)" d="M1993.69 410.884C1992.39 411.23 1984.32 405.376 1982.68 404.09L1850.66 403.915L1850.81 448.817L2023.74 448.965C2026.03 448.966 2029.43 448.993 2033.58 449.026C2055.22 449.196 2097 449.526 2105.32 447.188L2106.86 444.891L2107.12 404.386C2100.94 404.27 2094.89 404.099 2088.94 403.931C2056.31 403.009 2026.6 402.169 1993.69 410.884Z"/><path fill="#FDB874" transform="scale(1.00016 1.00041)" d="M1759.72 256.862L1722.24 256.862L1722.28 505.645L1759.59 505.722L1759.72 256.862Z"/><path fill="#FDB874" transform="scale(1.00016 1.00041)" d="M2107.08 298.943C2071.65 276.655 2037.65 249.422 2002.97 228.626C2000.97 258.525 2001.38 292.022 2001.75 322.686C2001.78 325.278 2001.81 327.85 2001.84 330.398L2107.12 330.543L2107.08 298.943Z"/><path fill="#FDB874" transform="scale(1.00016 1.00041)" d="M416.009 355.124L270.47 355.113L270.489 400.317L416.219 400.255L416.009 355.124Z"/><path fill="#FDB874" transform="scale(1.00016 1.00041)" d="M2107.14 337.125L2002.01 337.125C2001.95 338.24 2001.88 339.388 2001.81 340.563C2000.35 365.184 1998.17 401.901 2032.19 400.944C2041.41 400.684 2050.41 400.218 2059.36 399.754C2074.97 398.945 2090.45 398.143 2106.76 398.454C2107.14 377.949 2107.16 357.631 2107.14 337.125Z"/><path fill="#FDB874" transform="scale(1.00016 1.00041)" d="M582.764 128.47C562.851 149.892 541.482 169.921 520.194 189.95C516.484 189.94 511.574 189.894 505.915 189.841C480.079 189.601 438.63 189.216 424.457 191.336C422.609 226.748 422.607 249.519 425.121 284.817C456.749 254.952 491.282 225.058 521.588 194.596C538.582 181.734 551.901 164.708 567.965 150.662C577.502 142.324 595.317 140.401 597.043 126.761L594.389 125.269C591.279 125.395 584.856 126.22 582.764 128.47Z"/><path fill="#FDB874" transform="scale(1.00016 1.00041)" d="M521.105 562.506C489.417 532.141 458.142 501.747 424.579 473.424C424.543 478.403 424.504 483.383 424.465 488.364C424.265 514.047 424.064 539.75 424.297 565.419C426.959 565.418 431.141 565.449 436.226 565.486C457.158 565.641 493.411 565.908 502.163 564.527L502.247 564.526C504.926 564.475 512.981 564.322 514.778 565.53C533.857 578.359 553.227 598.328 568.585 615.296C576.591 624.139 575.524 630.453 584.676 635.246C588.242 634.672 589.362 634.761 590.194 634.314C590.973 633.895 591.501 633.008 593.544 630.673C593.328 629.142 593.114 627.613 592.898 626.083C571.678 609.723 538.854 579.284 521.105 562.506Z"/><path fill="#FDB874" transform="scale(1.00016 1.00041)" d="M254.876 437.563C224.958 437.292 196.135 437.03 166.022 438.333L162.474 440.803C160.38 459.171 220.089 497.835 248.742 516.388C253.249 519.307 256.988 521.728 259.596 523.494L261.944 521.795C263.807 508.903 263.469 469.782 263.279 447.815C263.244 443.74 263.214 440.254 263.204 437.637C260.417 437.613 257.642 437.588 254.876 437.563Z"/><path fill="#FDB874" transform="scale(1.00016 1.00041)" d="M1844.38 562.419C1845.3 544.779 1848.43 485.297 1842.09 478.7L1742.18 566.067C1726.78 579.692 1711.65 593.683 1696.55 607.652C1687.38 616.144 1679.31 618.631 1669.19 625.223C1667.53 631.07 1669.91 633.755 1673.68 638.003C1673.98 638.338 1674.28 638.683 1674.59 639.039C1682.88 635.03 1691.55 621.078 1699.06 613.175C1715.44 595.971 1732.34 581.392 1750.54 566.229C1781.89 565.87 1812.85 565.539 1844.2 565.872C1844.24 565.039 1844.3 563.871 1844.38 562.419Z"/><path fill="#FDB874" transform="scale(1.00016 1.00041)" d="M358.249 854.826Q358.265 858.096 356.668 860.827Q355.087 863.557 352.372 865.164Q349.674 866.771 346.403 866.787L319.21 866.918L319.177 860.128L346.37 859.997Q348.479 859.986 349.966 858.468Q351.452 856.967 351.442 854.859L351.286 822.569L332.593 822.66Q329.322 822.675 326.674 824.315Q324.042 825.955 322.445 828.652Q320.864 831.349 320.88 834.62Q320.896 837.874 322.503 840.555Q324.126 843.237 326.773 844.818Q329.437 846.399 332.708 846.449L347.998 846.375L348.031 853.182L332.741 853.256Q328.856 853.275 325.479 851.83Q322.118 850.385 319.549 847.825Q316.997 845.247 315.553 841.884Q314.109 838.521 314.09 834.653Q314.071 830.768 315.483 827.408Q316.894 824.031 319.421 821.429Q321.965 818.826 325.312 817.349Q328.675 815.872 332.56 815.853L358.059 815.73L358.249 854.826ZM411.418 827.374Q411.434 830.645 409.854 833.375Q408.273 836.089 405.592 837.712Q402.91 839.319 399.59 839.335L373.542 839.461Q374.984 842.443 377.816 844.338Q380.647 846.217 384.183 846.2L406.413 846.092L406.446 852.899L384.216 853.006Q380.332 853.025 376.954 851.581Q373.594 850.136 371.025 847.575Q368.472 844.998 367.028 841.635Q365.584 838.271 365.565 834.403Q365.547 830.519 366.958 827.158Q368.369 823.781 370.897 821.179Q373.441 818.577 376.787 817.1Q380.15 815.622 384.035 815.604L399.474 815.529Q402.795 815.513 405.492 817.11Q408.189 818.691 409.796 821.372Q411.402 824.037 411.418 827.374ZM399.557 832.529Q401.665 832.518 403.152 831.017Q404.639 829.516 404.629 827.407Q404.618 825.299 403.117 823.812Q401.616 822.325 399.507 822.335L384.068 822.41Q381.08 822.425 378.596 823.798Q376.129 825.171 374.497 827.487Q372.881 829.802 372.48 832.66L399.557 832.529ZM425.02 852.809L418.214 852.842L418.032 815.439L443.532 815.315Q447.4 815.297 450.777 816.741Q454.154 818.186 456.707 820.763Q459.276 823.341 460.721 826.704Q462.164 830.05 462.183 833.935L462.273 852.628L455.483 852.661L455.393 833.968Q455.377 830.697 453.787 828.016Q452.214 825.334 449.516 823.72Q446.835 822.106 443.565 822.122L424.871 822.212L425.02 852.809ZM514.845 826.873Q514.861 830.144 513.281 832.874Q511.7 835.588 509.019 837.211Q506.337 838.818 503.017 838.834L476.969 838.96Q478.412 841.941 481.243 843.837Q484.074 845.716 487.61 845.699L509.84 845.591L509.873 852.397L487.643 852.505Q483.759 852.524 480.381 851.08Q477.021 849.635 474.451 847.074Q471.899 844.496 470.455 841.133Q469.011 837.77 468.993 833.902Q468.974 830.017 470.384 826.657Q471.796 823.28 474.324 820.678Q476.868 818.076 480.214 816.598Q483.578 815.121 487.462 815.102L502.901 815.028Q506.221 815.011 508.919 816.609Q511.616 818.189 513.223 820.871Q514.829 823.536 514.845 826.873ZM502.984 832.027Q505.092 832.017 506.579 830.516Q508.065 829.014 508.055 826.906Q508.045 824.798 506.544 823.311Q505.042 821.824 502.934 821.834L487.495 821.909Q484.507 821.923 482.023 823.297Q479.556 824.67 477.924 826.986Q476.308 829.301 475.907 832.159L502.984 832.027ZM558.613 821.564L533.113 821.688Q531.005 821.698 529.517 823.199Q528.031 824.701 528.041 826.809L528.164 852.309L521.375 852.342L521.251 826.842Q521.235 823.505 522.816 820.825Q524.397 818.128 527.111 816.521Q529.826 814.897 533.08 814.881L558.58 814.758L558.613 821.564ZM572.553 806.19Q572.564 808.298 571.077 809.8Q569.59 811.301 567.481 811.311Q565.373 811.321 563.872 809.834Q562.371 808.348 562.361 806.239Q562.35 804.131 563.837 802.629Q565.324 801.128 567.432 801.118Q569.541 801.108 571.042 802.595Q572.543 804.081 572.553 806.19ZM571.083 852.101L564.276 852.134L564.095 814.731L570.902 814.698L571.083 852.101ZM619.283 851.867L597.054 851.975Q593.17 851.994 589.793 850.549Q586.432 849.104 583.862 846.544Q581.31 843.966 579.866 840.603Q578.422 837.24 578.403 833.372Q578.384 829.487 579.796 826.127Q581.207 822.75 583.734 820.148Q586.279 817.545 589.625 816.068Q592.988 814.591 596.872 814.572L619.102 814.464L619.135 821.271L596.905 821.379Q593.635 821.394 590.987 823.034Q588.355 824.674 586.758 827.371Q585.177 830.068 585.193 833.339Q585.209 836.593 586.816 839.274Q588.439 841.956 591.087 843.57Q593.751 845.184 597.021 845.168L619.25 845.061L619.283 851.867ZM695.656 825.997Q695.672 829.267 694.091 831.998Q692.51 834.711 689.829 836.335Q687.147 837.941 683.827 837.958L657.779 838.084Q659.221 841.065 662.053 842.961Q664.884 844.84 668.42 844.822L690.65 844.715L690.682 851.521L668.453 851.629Q664.569 851.648 661.192 850.203Q657.831 848.758 655.261 846.198Q652.709 843.62 651.265 840.257Q649.821 836.894 649.802 833.026Q649.784 829.141 651.195 825.781Q652.606 822.404 655.133 819.802Q657.678 817.199 661.025 815.722Q664.388 814.245 668.271 814.226L683.711 814.151Q687.031 814.135 689.729 815.732Q692.426 817.313 694.033 819.995Q695.64 822.66 695.656 825.997ZM683.794 831.151Q685.902 831.141 687.388 829.639Q688.876 828.138 688.866 826.03Q688.856 823.921 687.353 822.434Q685.852 820.948 683.744 820.958L668.304 821.033Q665.317 821.047 662.833 822.42Q660.366 823.794 658.734 826.109Q657.118 828.425 656.717 831.282L683.794 831.151ZM709.257 851.431L702.45 851.464L702.269 814.061L738.095 813.888Q741.98 813.869 745.34 815.313Q748.718 816.758 751.286 819.335Q753.856 821.913 755.3 825.276Q756.743 828.623 756.762 832.507L756.853 851.2L750.047 851.233L749.956 832.54Q749.94 829.27 748.366 826.588Q746.793 823.906 744.095 822.292Q741.399 820.678 738.128 820.694L732.899 820.719L733.047 851.316L726.257 851.349L726.109 820.752L709.109 820.835L709.257 851.431ZM809.999 832.249Q810.018 836.117 808.607 839.494Q807.195 842.871 804.651 845.474Q802.123 848.059 798.76 849.536Q795.397 851.014 791.529 851.032L766.03 851.156L765.782 800.157L772.589 800.124L772.804 844.316L791.496 844.226Q794.767 844.21 797.431 842.57Q800.113 840.93 801.66 838.233Q803.225 835.536 803.21 832.282Q803.194 829.012 801.603 826.33Q800.03 823.648 797.332 822.034Q794.652 820.42 791.381 820.436L776.074 820.51L776.041 813.704L791.348 813.63Q795.216 813.611 798.593 815.055Q801.97 816.5 804.524 819.077Q807.092 821.655 808.536 825.018Q809.981 828.365 809.999 832.249ZM860.894 825.196Q860.91 828.466 859.329 831.197Q857.748 833.91 855.067 835.534Q852.385 837.141 849.065 837.157L823.017 837.283Q824.459 840.264 827.291 842.16Q830.123 844.039 833.659 844.022L855.888 843.914L855.921 850.72L833.692 850.828Q829.807 850.847 826.43 849.402Q823.069 847.958 820.5 845.397Q817.948 842.819 816.503 839.456Q815.059 836.093 815.04 832.225Q815.022 828.34 816.433 824.98Q817.845 821.603 820.372 819.001Q822.916 816.398 826.263 814.921Q829.625 813.444 833.51 813.425L848.949 813.35Q852.269 813.334 854.967 814.932Q857.664 816.512 859.271 819.194Q860.878 821.859 860.894 825.196ZM849.032 830.35Q851.141 830.34 852.627 828.839Q854.114 827.337 854.104 825.229Q854.094 823.12 852.593 821.634Q851.091 820.147 848.982 820.157L833.543 820.232Q830.555 820.246 828.071 821.62Q825.605 822.993 823.972 825.308Q822.356 827.624 821.955 830.481L849.032 830.35ZM909.375 850.461L902.568 850.494L902.42 819.898L883.727 819.989Q880.456 820.004 877.808 821.611Q875.175 823.217 873.579 825.948Q871.998 828.678 872.014 831.949Q872.029 835.203 873.636 837.884Q875.26 840.566 877.907 842.147Q880.571 843.728 883.842 843.778L899.132 843.704L899.165 850.511L883.875 850.585Q879.99 850.604 876.613 849.159Q873.252 847.714 870.684 845.154Q868.131 842.576 866.687 839.213Q865.243 835.85 865.224 831.982Q865.205 828.097 866.617 824.737Q868.028 821.359 870.556 818.757Q873.099 816.155 876.446 814.678Q879.809 813.201 883.694 813.182L902.387 813.091L902.321 799.495L909.128 799.462L909.375 850.461ZM960.85 850.212L954.043 850.245L953.895 819.648L935.202 819.739Q931.931 819.755 929.283 821.362Q926.651 822.968 925.054 825.698Q923.473 828.429 923.489 831.699Q923.505 834.953 925.112 837.635Q926.735 840.316 929.383 841.897Q932.046 843.478 935.318 843.529L950.607 843.455L950.64 850.261L935.35 850.335Q931.466 850.354 928.089 848.91Q924.727 847.465 922.159 844.904Q919.606 842.327 918.162 838.963Q916.718 835.6 916.699 831.732Q916.68 827.847 918.092 824.487Q919.504 821.11 922.031 818.508Q924.574 815.906 927.921 814.429Q931.284 812.951 935.169 812.932L953.862 812.842L953.796 799.245L960.603 799.212L960.85 850.212ZM1014.03 824.454Q1014.04 827.724 1012.46 830.455Q1010.88 833.168 1008.2 834.792Q1005.52 836.398 1002.2 836.414L976.151 836.541Q977.594 839.522 980.425 841.418Q983.257 843.297 986.793 843.279L1009.02 843.172L1009.05 849.978L986.826 850.086Q982.941 850.105 979.564 848.66Q976.203 847.215 973.634 844.655Q971.082 842.077 969.638 838.714Q968.193 835.351 968.175 831.483Q968.156 827.598 969.568 824.238Q970.979 820.861 973.506 818.258Q976.05 815.656 979.397 814.179Q982.76 812.702 986.645 812.683L1002.08 812.608Q1005.4 812.592 1008.1 814.189Q1010.8 815.77 1012.4 818.452Q1014.01 821.117 1014.03 824.454ZM1002.17 829.608Q1004.27 829.598 1005.76 828.096Q1007.25 826.595 1007.24 824.487Q1007.23 822.378 1005.73 820.891Q1004.23 819.404 1002.12 819.415L986.678 819.49Q983.69 819.504 981.205 820.877Q978.739 822.251 977.106 824.566Q975.49 826.882 975.089 829.739L1002.17 829.608ZM1062.51 849.719L1055.7 849.752L1055.55 819.156L1036.86 819.246Q1033.59 819.262 1030.94 820.869Q1028.31 822.475 1026.71 825.206Q1025.13 827.936 1025.15 831.207Q1025.16 834.46 1026.77 837.142Q1028.39 839.824 1031.04 841.405Q1033.71 842.986 1036.98 843.036L1052.27 842.962L1052.3 849.769L1037.01 849.843Q1033.12 849.861 1029.75 848.417Q1026.39 846.972 1023.82 844.411Q1021.27 841.834 1019.82 838.471Q1018.38 835.108 1018.36 831.239Q1018.34 827.355 1019.75 823.994Q1021.16 820.617 1023.69 818.015Q1026.23 815.413 1029.58 813.936Q1032.94 812.459 1036.83 812.44L1055.52 812.349L1055.45 798.753L1062.26 798.72L1062.51 849.719ZM1111.13 849.483L1109.42 849.492Q1106.17 849.507 1103.43 847.927Q1100.7 846.33 1099.1 843.665Q1097.49 840.983 1097.47 837.646L1097.29 798.55L1104.08 798.517L1104.26 837.613Q1104.28 839.722 1105.78 841.208Q1107.28 842.695 1109.39 842.685L1111.1 842.677L1111.13 849.483ZM1162.17 830.542Q1162.19 834.411 1160.78 837.788Q1159.37 841.165 1156.83 843.767Q1154.3 846.352 1150.93 847.83Q1147.57 849.307 1143.7 849.326L1133.23 849.376Q1129.34 849.395 1125.97 847.951Q1122.61 846.506 1120.04 843.945Q1117.48 841.368 1116.04 838.004Q1114.6 834.641 1114.58 830.773Q1114.56 826.888 1115.97 823.528Q1117.38 820.151 1119.91 817.549Q1122.45 814.947 1125.8 813.469Q1129.16 811.992 1133.05 811.973L1143.52 811.923Q1147.39 811.904 1150.77 813.349Q1154.14 814.793 1156.7 817.371Q1159.27 819.948 1160.71 823.311Q1162.15 826.658 1162.17 830.542ZM1155.37 830.575Q1155.35 827.305 1153.78 824.623Q1152.2 821.941 1149.51 820.327Q1146.81 818.713 1143.56 818.729L1133.08 818.78Q1129.81 818.796 1127.16 820.436Q1124.53 822.075 1122.93 824.773Q1121.35 827.47 1121.37 830.74Q1121.38 833.994 1122.99 836.676Q1124.61 839.357 1127.26 840.972Q1129.93 842.586 1133.2 842.57L1143.67 842.519Q1146.93 842.503 1149.61 840.863Q1152.29 839.223 1153.84 836.526Q1155.38 833.829 1155.37 830.575ZM1208.09 849.013L1185.86 849.121Q1181.97 849.14 1178.6 847.695Q1175.24 846.251 1172.67 843.69Q1170.12 841.112 1168.67 837.749Q1167.23 834.386 1167.21 830.518Q1167.19 826.633 1168.6 823.273Q1170.01 819.896 1172.54 817.294Q1175.08 814.692 1178.43 813.214Q1181.79 811.737 1185.68 811.718L1207.91 811.611L1207.94 818.417L1185.71 818.525Q1182.44 818.541 1179.79 820.181Q1177.16 821.82 1175.56 824.518Q1173.98 827.215 1174 830.485Q1174.01 833.739 1175.62 836.421Q1177.24 839.102 1179.89 840.716Q1182.56 842.331 1185.83 842.315L1208.06 842.207L1208.09 849.013ZM1258.14 848.771L1224.14 848.936Q1220.87 848.952 1218.14 847.371Q1215.42 845.774 1213.8 843.109Q1212.19 840.427 1212.18 837.09Q1212.16 833.753 1213.74 831.073Q1215.34 828.376 1218.04 826.769Q1220.75 825.145 1224.02 825.129L1247.83 825.014L1247.86 831.82L1224.06 831.936Q1221.95 831.946 1220.46 833.447Q1218.97 834.949 1218.98 837.057Q1218.99 839.166 1220.5 840.652Q1222 842.139 1224.11 842.129L1251.3 841.997L1251.21 823.304Q1251.2 821.196 1249.7 819.709Q1248.2 818.222 1246.09 818.232L1218.89 818.364L1218.86 811.558L1246.05 811.426Q1249.39 811.41 1252.07 813.007Q1254.77 814.588 1256.38 817.269Q1258 819.934 1258.02 823.271L1258.14 848.771ZM1280.99 848.66L1279.28 848.668Q1276.03 848.684 1273.3 847.104Q1270.57 845.507 1268.96 842.841Q1267.35 840.16 1267.34 836.823L1267.15 797.727L1273.94 797.694L1274.13 836.79Q1274.14 838.898 1275.64 840.385Q1277.14 841.872 1279.25 841.862L1280.96 841.854L1280.99 848.66ZM1325.05 848.447L1323.34 848.455Q1320.09 848.471 1317.36 846.89Q1314.63 845.293 1313.02 842.628Q1311.42 839.946 1311.4 836.609L1311.21 797.513L1318 797.48L1318.19 836.576Q1318.2 838.685 1319.7 840.172Q1321.2 841.659 1323.31 841.648L1325.02 841.64L1325.05 848.447ZM1344.3 848.353L1342.59 848.362Q1339.33 848.377 1336.6 846.797Q1333.88 845.2 1332.26 842.535Q1330.66 839.853 1330.64 836.516L1330.45 797.42L1337.24 797.387L1337.43 836.483Q1337.44 838.592 1338.94 840.078Q1340.45 841.565 1342.56 841.555L1344.27 841.547L1344.3 848.353ZM1392.78 848.118L1358.78 848.283Q1355.51 848.299 1352.77 846.718Q1350.07 845.121 1348.44 842.456Q1346.83 839.775 1346.81 836.438Q1346.8 833.101 1348.38 830.42Q1349.98 827.723 1352.67 826.116Q1355.4 824.493 1358.67 824.477L1382.47 824.361L1382.5 831.168L1358.7 831.283Q1356.59 831.294 1355.1 832.795Q1353.61 834.296 1353.62 836.405Q1353.63 838.513 1355.13 840Q1356.64 841.487 1358.75 841.477L1385.94 841.345L1385.85 822.652Q1385.84 820.543 1384.34 819.056Q1382.83 817.57 1380.72 817.58L1353.53 817.712L1353.5 810.905L1380.69 810.773Q1384.03 810.757 1386.71 812.354Q1389.41 813.935 1391.02 816.617Q1392.64 819.282 1392.66 822.619L1392.78 848.118ZM1409.1 848.039L1402.3 848.072L1402.12 810.669L1437.94 810.496Q1441.83 810.477 1445.19 811.922Q1448.56 813.366 1451.14 815.944Q1453.71 818.521 1455.14 821.884Q1456.59 825.231 1456.61 829.115L1456.7 847.809L1449.89 847.842L1449.8 829.148Q1449.78 825.878 1448.21 823.196Q1446.64 820.514 1443.94 818.9Q1441.24 817.286 1437.97 817.302L1432.74 817.328L1432.89 847.924L1426.1 847.957L1425.95 817.361L1408.95 817.443L1409.1 848.039ZM1508.44 847.558L1474.44 847.723Q1471.17 847.738 1468.44 846.158Q1465.73 844.561 1464.1 841.896Q1462.5 839.214 1462.48 835.877Q1462.47 832.54 1464.04 829.86Q1465.65 827.162 1468.34 825.556Q1471.05 823.932 1474.32 823.916L1498.13 823.801L1498.17 830.607L1474.36 830.723Q1472.26 830.733 1470.77 832.234Q1469.28 833.736 1469.29 835.844Q1469.3 837.952 1470.8 839.439Q1472.31 840.926 1474.41 840.916L1501.61 840.784L1501.52 822.091Q1501.51 819.983 1500 818.496Q1498.5 817.009 1496.39 817.019L1469.2 817.151L1469.17 810.344L1496.36 810.213Q1499.7 810.196 1502.38 811.794Q1505.07 813.375 1506.68 816.056Q1508.3 818.721 1508.32 822.058L1508.44 847.558ZM1551.75 801.444Q1551.76 803.552 1550.26 805.054Q1548.78 806.555 1546.67 806.565Q1544.56 806.576 1543.06 805.089Q1541.56 803.602 1541.55 801.494Q1541.54 799.385 1543.03 797.884Q1544.51 796.382 1546.62 796.372Q1548.73 796.362 1550.23 797.849Q1551.74 799.336 1551.75 801.444ZM1550.27 847.355L1543.47 847.388L1543.29 809.985L1550.09 809.952L1550.27 847.355ZM1566.86 847.275L1560.06 847.308L1559.88 809.905L1585.38 809.781Q1589.25 809.762 1592.62 811.207Q1596 812.652 1598.55 815.229Q1601.12 817.807 1602.56 821.17Q1604.01 824.516 1604.03 828.401L1604.12 847.094L1597.33 847.127L1597.24 828.434Q1597.22 825.163 1595.63 822.482Q1594.06 819.8 1591.36 818.186Q1588.68 816.572 1585.41 816.588L1566.71 816.678L1566.86 847.275ZM1625.19 846.992L1618.4 847.025L1618.25 816.429L1608.04 816.478L1608.01 809.672L1618.22 809.622L1618.15 796.025L1624.94 795.993L1625.01 809.589L1648.82 809.474L1648.85 816.28L1625.04 816.396L1625.19 846.992ZM1696.87 821.144Q1696.89 824.415 1695.31 827.145Q1693.74 829.859 1691.05 831.482Q1688.37 833.089 1685.05 833.105L1659 833.231Q1660.45 836.213 1663.28 838.108Q1666.1 839.987 1669.64 839.97L1691.87 839.862L1691.91 846.669L1669.68 846.776Q1665.79 846.795 1662.41 845.351Q1659.05 843.906 1656.48 841.345Q1653.93 838.768 1652.48 835.404Q1651.05 832.041 1651.03 828.173Q1651.01 824.288 1652.41 820.928Q1653.83 817.551 1656.35 814.949Q1658.9 812.347 1662.24 810.87Q1665.61 809.392 1669.5 809.373L1684.94 809.299Q1688.26 809.283 1690.95 810.88Q1693.65 812.461 1695.25 815.142Q1696.86 817.807 1696.87 821.144ZM1685.02 826.298Q1687.12 826.288 1688.61 824.787Q1690.09 823.286 1690.08 821.177Q1690.07 819.069 1688.58 817.582Q1687.07 816.095 1684.97 816.105L1669.53 816.18Q1666.54 816.195 1664.06 817.568Q1661.58 818.941 1659.95 821.257Q1658.34 823.572 1657.94 826.43L1685.02 826.298ZM1740.65 815.835L1715.15 815.959Q1713.04 815.969 1711.55 817.471Q1710.06 818.972 1710.07 821.08L1710.2 846.58L1703.41 846.613L1703.28 821.113Q1703.27 817.776 1704.84 815.096Q1706.43 812.399 1709.14 810.792Q1711.86 809.168 1715.12 809.152L1740.62 809.029L1740.65 815.835ZM1783.49 802.031L1764.65 802.122Q1761.4 802.138 1758.75 803.778Q1756.1 805.418 1754.52 808.115Q1752.94 810.812 1752.96 814.066L1753.12 846.372L1746.31 846.405L1746.14 812.405Q1746.12 808.803 1747.6 805.708Q1749.08 802.596 1751.69 800.309Q1754.3 798.022 1757.62 796.678Q1760.95 795.333 1764.62 795.316L1783.46 795.224L1783.49 802.031ZM1783.57 819.031L1756.36 819.162L1756.33 812.356L1783.54 812.224L1783.57 819.031ZM1830.08 845.999L1796.08 846.164Q1792.81 846.18 1790.08 844.599Q1787.37 843.002 1785.74 840.337Q1784.13 837.655 1784.12 834.318Q1784.1 830.981 1785.68 828.301Q1787.29 825.604 1789.98 823.997Q1792.69 822.373 1795.96 822.357L1819.77 822.242L1819.8 829.049L1795.99 829.164Q1793.89 829.174 1792.4 830.675Q1790.92 832.177 1790.93 834.285Q1790.94 836.394 1792.44 837.88Q1793.94 839.367 1796.04 839.357L1823.24 839.225L1823.15 820.532Q1823.14 818.424 1821.63 816.937Q1820.14 815.45 1818.03 815.46L1790.84 815.592L1790.81 808.786L1817.99 808.654Q1821.33 808.638 1824.01 810.235Q1826.71 811.816 1828.31 814.497Q1829.94 817.162 1829.95 820.499L1830.08 845.999ZM1878.02 845.767L1855.79 845.874Q1851.91 845.893 1848.53 844.449Q1845.16 843.004 1842.6 840.443Q1840.05 837.866 1838.6 834.502Q1837.15 831.139 1837.14 827.271Q1837.12 823.386 1838.53 820.026Q1839.94 816.649 1842.47 814.047Q1845.01 811.445 1848.36 809.968Q1851.72 808.49 1855.6 808.471L1877.83 808.364L1877.87 815.17L1855.64 815.278Q1852.37 815.294 1849.73 816.934Q1847.09 818.573 1845.5 821.271Q1843.91 823.968 1843.93 827.238Q1843.94 830.492 1845.55 833.174Q1847.18 835.855 1849.82 837.47Q1852.48 839.084 1855.75 839.068L1877.98 838.96L1878.02 845.767ZM1928.07 820.024Q1928.09 823.294 1926.51 826.025Q1924.93 828.738 1922.25 830.362Q1919.57 831.968 1916.25 831.984L1890.2 832.111Q1891.64 835.092 1894.47 836.988Q1897.3 838.866 1900.84 838.849L1923.07 838.742L1923.1 845.548L1900.88 845.656Q1896.99 845.675 1893.61 844.23Q1890.25 842.785 1887.68 840.225Q1885.13 837.647 1883.68 834.284Q1882.24 830.921 1882.22 827.053Q1882.21 823.168 1883.61 819.808Q1885.02 816.43 1887.55 813.828Q1890.1 811.226 1893.44 809.749Q1896.8 808.272 1900.69 808.253L1916.13 808.178Q1919.45 808.162 1922.15 809.759Q1924.85 811.34 1926.45 814.022Q1928.05 816.687 1928.07 820.024ZM1916.22 825.178Q1918.32 825.168 1919.81 823.666Q1921.29 822.165 1921.28 820.057Q1921.27 817.948 1919.77 816.461Q1918.27 814.974 1916.17 814.985L1900.73 815.059Q1897.74 815.074 1895.25 816.447Q1892.78 817.821 1891.15 820.136Q1889.53 822.452 1889.14 825.309L1916.22 825.178Z"/></svg>