<?xml version="1.0" encoding="utf-8" ?><svg xmlns="http://www.w3.org/2000/svg" xmlns:xlink="http://www.w3.org/1999/xlink" width="2242" height="759" viewBox="0 0 2242 759"><path fill="#FDB874" transform="scale(1.00016 0.999629)" d="M1703.1 155.027C1718 167.75 1732.61 180.958 1747.29 193.943C1779.44 225.727 1813.79 252.873 1844.31 286.477C1846.46 271.019 1844.16 257.999 1842.22 246.976C1840.44 236.889 1838.95 228.475 1841.44 221.396C1849.64 213.367 1861.89 216.335 1863.28 228.346C1860.97 235.757 1859.17 237.19 1853.68 242.325L1852.03 243.863C1851.42 258.527 1851.47 273.628 1851.52 288.489C1851.53 291.832 1851.54 295.163 1851.54 298.474L1918.44 298.474C1924.03 291.221 1927.08 287.205 1936.56 286.845C1946.38 291.491 1947.47 298.162 1942.32 307.76C1942.12 307.914 1941.88 308.093 1941.62 308.288C1939.61 309.808 1936.28 312.317 1934.55 311.558C1913.91 302.479 1891.43 303.275 1868.36 304.091C1862.83 304.286 1857.27 304.483 1851.69 304.545C1851.02 316.425 1851.06 328.576 1851.09 340.583C1851.1 343.312 1851.11 346.035 1851.11 348.744L1919.34 347.92C1926.06 340.992 1927.21 340.196 1935.55 339.056C1945.31 343.627 1946.12 349.265 1942.34 359.295C1939.67 361.813 1938.98 362.771 1938.04 363.201C1937.09 363.641 1935.89 363.531 1932.05 363.973C1925.27 361.956 1923.36 359.002 1918.42 353.894C1895.28 353.421 1874.4 353.237 1851.2 353.911C1850.71 368.053 1850.85 381.767 1850.99 395.86L1851.02 398.377C1897.27 399.329 1935.21 400.054 1981.37 397.421L1994.52 382.008C1996.11 328.201 1996.32 277.273 1996.32 223.426C1981.14 213.262 1966.03 202.146 1951.17 191.456C1910.15 189.187 1862.4 189.701 1817.68 190.181C1802.74 190.342 1788.14 190.499 1774.24 190.547L1749.92 190.593C1727.4 169.771 1705.15 149.353 1684.42 126.761C1683.12 125.339 1678.18 124.233 1676.04 124.36L1674.61 127.309C1681.22 142.247 1691.61 145.212 1703.1 155.027Z"/><path fill="#FDB874" transform="scale(1.00016 0.999629)" d="M650.533 256.548C615.121 255.548 572.311 254.339 547.446 256.231C466.209 258.83 463.636 302.079 466.84 371.807C467.147 378.486 467 386.395 466.842 394.955C466.266 426.089 465.53 465.837 485.868 486.341C514.036 508.117 566.341 506.28 607.097 504.849C615.548 504.553 623.503 504.273 630.642 504.226C644.613 504.072 669.403 497.36 676.68 487.113C689.62 468.899 688.631 421.215 687.951 388.442C687.788 380.536 687.642 373.498 687.714 367.951L569.22 368.225C569.209 369.344 569.161 370.849 569.104 372.601C568.82 381.422 568.336 396.495 571.43 400.012L649.618 400.035C649.658 403.232 649.719 406.424 649.781 409.613C650.137 428.183 650.491 446.607 646.651 464.836C625.053 472.07 517.625 486.74 511.018 455.812C502.682 416.798 500.702 338.162 513.604 300.891C519.872 282.788 632.234 286.803 673.626 288.282C678.942 288.472 683.087 288.62 685.687 288.674L685.651 257.407C675.835 257.263 663.695 256.92 650.533 256.548Z"/><path fill="#FDB874" transform="scale(1.00016 0.999629)" d="M938.565 256.978C894.761 256.677 850.506 256.372 807.822 257.074L807.858 505.322L1002.85 505.322L1002.81 473.575L846.519 473.575L846.575 396.823L872.811 396.823L982.225 396.583L982.168 365.295L846.237 365.295L846.463 288.706C884.983 287.299 926.594 287.799 966.718 288.281C978.825 288.426 990.797 288.57 1002.51 288.659L1002.28 257.3C981.308 257.272 959.991 257.125 938.565 256.978Z"/><path fill="#FDB874" transform="scale(1.00016 0.999629)" d="M416.362 408.49L270.436 408.49L270.436 531.254C286.324 542.519 302.468 554.254 318.497 565.239L339.912 565.419L339.859 504.69L338.124 503.118C314.457 481.517 342.641 466.365 355.723 481.883C357.608 489.607 354.611 495.756 351.596 501.942C348.599 508.092 345.584 514.279 347.33 522.088C347.337 523.026 347.345 523.968 347.352 524.908L347.409 565.419L417.053 565.419L416.362 408.49Z"/><path fill="#FDB874" transform="scale(1.00016 0.999629)" d="M1932.9 454.313C1905.33 454.099 1878.07 453.888 1850.1 454.802C1851.28 476.318 1851.67 494.697 1851.58 516.256C1854.85 516.352 1858.12 516.454 1861.39 516.556C1885.59 517.311 1909.69 518.062 1933.91 516.493C1934.79 515.86 1935.65 515.22 1936.5 514.588C1945.39 507.992 1953.21 502.191 1962.14 512.863C1964.3 523.723 1961.52 529.168 1950.93 531.647C1917.54 520.446 1901.55 521.126 1873.61 522.314C1867.04 522.593 1859.82 522.901 1851.56 523.089L1851.35 566.23C1882.96 564.683 1922.79 564.735 1954.72 565.584L1967.17 557.178C2015.47 524.343 2061.43 488.336 2109.15 454.836C2076.6 454.039 2044.21 454.203 2011.78 454.367C1996.29 454.445 1980.79 454.524 1965.26 454.498C1954.38 454.48 1943.62 454.396 1932.9 454.313Z"/><path fill="#FDB874" transform="scale(1.00016 0.999629)" d="M220.676 306.277C200.754 306.479 180.491 306.684 161.436 305.956C163.499 345.522 162.763 382.422 161.981 421.573C161.924 424.436 161.866 427.312 161.81 430.202L262.879 430.202L262.828 363.37L216.451 364.058C210.719 368.37 208.875 370.347 201.536 370.984C194.142 368.449 196.626 370.306 192.11 364.065C191.007 357.502 191.107 356.741 193.952 350.728C204.98 342.027 210.021 347.476 217.804 355.889C218.134 356.246 218.469 356.608 218.809 356.974L252.124 356.702C259.976 354.998 269.137 348.493 272.506 348.188C286.842 346.898 302.47 347.083 317.235 347.258C319.359 347.283 321.465 347.308 323.547 347.328L415.885 348.367L415.827 306.431L248.569 306.093C239.457 306.087 230.105 306.182 220.676 306.277Z"/><path fill="#FDB874" transform="scale(1.00016 0.999629)" d="M416.037 191.259L314.438 191.361C266.81 222.748 212.436 261.863 168.42 298.442C221.851 299.348 276.337 299.094 330.535 298.841C357.105 298.717 383.606 298.593 409.879 298.607L414.06 297.24C418.272 286.058 417.256 262.145 416.595 246.583C416.496 244.265 416.406 242.133 416.341 240.255L337.05 240.255C336.599 240.759 336.16 241.254 335.731 241.738C328.256 250.165 323.809 255.179 312.733 246.927C309.42 240.741 309.328 239.923 309.955 232.919C313.651 226.408 311.499 228.44 317.967 225.075C326.64 224.594 329.654 227.013 335.972 232.715L416.077 233.182L416.037 191.259Z"/><path fill="#FDB874" transform="scale(1.00016 0.999629)" d="M1454.9 257.159L1415.9 256.979L1416.59 505.497C1427.38 505.575 1438.23 505.675 1449.11 505.775C1499.25 506.237 1550.18 506.705 1599.76 505.082L1599.94 473.582L1454.55 473.582C1455.9 408.934 1455.47 343.052 1455.04 278.079C1454.99 271.094 1454.95 264.12 1454.9 257.159Z"/><path fill="#FDB874" transform="scale(1.00016 0.999629)" d="M1154.85 257.157L1116.5 257.157L1116.86 505.191C1130.84 505.105 1144.87 504.992 1158.91 504.88C1206.91 504.495 1255.14 504.109 1302.9 504.755C1302.95 502.594 1303.01 500.407 1303.07 498.206C1303.29 490.002 1303.52 481.597 1303.35 473.582L1154.66 473.582L1154.85 257.157Z"/><path fill="#FDB874" transform="scale(1.00016 0.999629)" d="M1993.69 410.884C1992.39 411.23 1984.32 405.376 1982.68 404.09L1850.66 403.915L1850.81 448.817L2023.74 448.965C2026.03 448.966 2029.43 448.993 2033.58 449.026C2055.22 449.196 2097 449.526 2105.32 447.188L2106.86 444.891L2107.12 404.386C2100.94 404.27 2094.89 404.099 2088.94 403.931C2056.31 403.009 2026.6 402.169 1993.69 410.884Z"/><path fill="#FDB874" transform="scale(1.00016 0.999629)" d="M1759.72 256.862L1722.24 256.862L1722.28 505.645L1759.59 505.722L1759.72 256.862Z"/><path fill="#FDB874" transform="scale(1.00016 0.999629)" d="M2107.08 298.943C2071.65 276.655 2037.65 249.422 2002.97 228.626C2000.97 258.525 2001.38 292.022 2001.75 322.686C2001.78 325.278 2001.81 327.85 2001.84 330.398L2107.12 330.543L2107.08 298.943Z"/><path fill="#FDB874" transform="scale(1.00016 0.999629)" d="M416.009 355.124L270.47 355.113L270.489 400.317L416.219 400.255L416.009 355.124Z"/><path fill="#FDB874" transform="scale(1.00016 0.999629)" d="M2107.14 337.125L2002.01 337.125C2001.95 338.24 2001.88 339.388 2001.81 340.563C2000.35 365.184 1998.17 401.901 2032.19 400.944C2041.41 400.684 2050.41 400.218 2059.36 399.754C2074.97 398.945 2090.45 398.143 2106.76 398.454C2107.14 377.949 2107.16 357.631 2107.14 337.125Z"/><path fill="#FDB874" transform="scale(1.00016 0.999629)" d="M582.764 128.47C562.851 149.892 541.482 169.921 520.194 189.95C516.484 189.94 511.574 189.894 505.915 189.841C480.079 189.601 438.63 189.216 424.457 191.336C422.609 226.748 422.607 249.519 425.121 284.817C456.749 254.952 491.282 225.058 521.588 194.596C538.582 181.734 551.901 164.708 567.965 150.662C577.502 142.324 595.317 140.401 597.043 126.761L594.389 125.269C591.279 125.395 584.856 126.22 582.764 128.47Z"/><path fill="#FDB874" transform="scale(1.00016 0.999629)" d="M521.105 562.506C489.417 532.141 458.142 501.747 424.579 473.424C424.543 478.403 424.504 483.383 424.465 488.364C424.265 514.047 424.064 539.75 424.297 565.419C426.959 565.418 431.141 565.449 436.226 565.486C457.158 565.641 493.411 565.908 502.163 564.527L502.247 564.526C504.926 564.475 512.981 564.322 514.778 565.53C533.857 578.359 553.227 598.328 568.585 615.296C576.591 624.139 575.524 630.453 584.676 635.246C588.242 634.672 589.362 634.761 590.194 634.314C590.973 633.895 591.501 633.008 593.544 630.673C593.328 629.142 593.114 627.613 592.898 626.083C571.678 609.723 538.854 579.284 521.105 562.506Z"/><path fill="#FDB874" transform="scale(1.00016 0.999629)" d="M254.876 437.563C224.958 437.292 196.135 437.03 166.022 438.333L162.474 440.803C160.38 459.171 220.089 497.835 248.742 516.388C253.249 519.307 256.988 521.728 259.596 523.494L261.944 521.795C263.807 508.903 263.469 469.782 263.279 447.815C263.244 443.74 263.214 440.254 263.204 437.637C260.417 437.613 257.642 437.588 254.876 437.563Z"/><path fill="#FDB874" transform="scale(1.00016 0.999629)" d="M1844.38 562.419C1845.3 544.779 1848.43 485.297 1842.09 478.7L1742.18 566.067C1726.78 579.692 1711.65 593.683 1696.55 607.652C1687.38 616.144 1679.31 618.631 1669.19 625.223C1667.53 631.07 1669.91 633.755 1673.68 638.003C1673.98 638.338 1674.28 638.683 1674.59 639.039C1682.88 635.03 1691.55 621.078 1699.06 613.175C1715.44 595.971 1732.34 581.392 1750.54 566.229C1781.89 565.87 1812.85 565.539 1844.2 565.872C1844.24 565.039 1844.3 563.871 1844.38 562.419Z"/><path fill="#FDB874" transform="scale(1.00016 0.999629)" d="M717.847 651.968L716.795 656.544Q711.338 654.611 706.676 654.611Q700.338 654.611 697.201 659.058Q694.086 663.505 694.086 671.433Q694.086 679.339 697.244 683.959Q700.424 688.578 706.676 688.578Q710.908 688.578 717.224 686.279L718.642 690.683Q712.219 693.154 706.762 693.154Q698.146 693.154 693.57 687.396Q688.994 681.617 688.994 671.326Q688.994 661.035 693.463 655.535Q697.953 650.035 706.676 650.035Q712.219 650.035 717.847 651.968ZM731.146 671.605Q731.146 650.035 747.947 650.035Q764.748 650.035 764.748 671.605Q764.748 693.154 747.947 693.154Q731.146 693.154 731.146 671.605ZM747.947 654.611Q736.152 654.611 736.152 671.605Q736.152 688.578 747.947 688.578Q759.742 688.578 759.742 671.605Q759.742 654.611 747.947 654.611ZM807.609 633.922L807.609 685.054L808.49 692.703L804 693.24L803.119 688.578Q796.523 693.154 790.98 693.154Q783.138 693.154 778.777 687.353Q774.437 681.531 774.437 671.541Q774.437 661.55 779.271 655.793Q784.105 650.035 792.484 650.035Q797.404 650.035 802.947 652.398L802.947 633.922L807.609 633.922ZM779.443 671.433Q779.443 679.168 782.472 683.873Q785.523 688.578 791.238 688.578Q796.953 688.578 802.947 683.55L802.947 657.168Q801.099 656.287 797.877 655.449Q794.676 654.611 792.656 654.611Q786.404 654.611 782.924 659.144Q779.443 663.677 779.443 671.433ZM821.252 692.359L821.252 687.955L834.099 687.955L834.099 654.955L821.252 654.955L821.252 650.55L838.762 650.55L838.762 687.955L851.609 687.955L851.609 692.359L821.252 692.359ZM832.252 638.154Q832.252 636.392 833.262 635.425Q834.271 634.459 836.033 634.459Q839.642 634.459 839.642 638.326Q839.642 642.193 836.033 642.107Q832.252 642.107 832.252 638.154ZM869.119 650.55L869.291 654.074Q877.842 650.035 883.471 650.035Q889.099 650.035 892.301 653.902Q895.523 657.769 895.523 664.472L895.523 692.359L890.861 692.359L890.861 664.472Q890.861 660.154 888.756 657.339Q886.629 654.611 882.396 654.611Q878.185 654.611 869.291 658.478L869.291 692.359L864.629 692.359L864.629 650.55L869.119 650.55ZM922.98 692.359Q915.053 692.359 910.82 686.902Q906.609 681.445 906.609 671.455Q906.609 661.464 911.314 655.75Q916.019 650.035 924.484 650.035Q929.146 650.035 934.947 653.107L935.119 650.55L939.609 650.55L939.609 682.24Q940.941 692.703 940.941 694.379Q940.941 702.134 935.742 706.044Q930.543 709.955 923.539 709.955Q916.557 709.955 907.662 706.431L909.252 702.049Q917.953 705.379 923.195 705.379Q928.437 705.379 932.348 702.65Q936.258 699.922 936.258 694.464L935.484 687.525Q928.523 692.359 922.98 692.359ZM924.656 654.439Q918.404 654.439 914.881 659.058Q911.357 663.677 911.357 671.39Q911.357 679.082 914.43 683.529Q917.523 687.955 923.066 687.955Q928.609 687.955 934.947 682.669L934.947 658.049Q929.232 654.439 924.656 654.439ZM1009.13 688.578Q1012.38 688.578 1016.2 686.515Q1020.05 684.431 1021.81 682.669L1021.81 672.207Q1015.99 671.777 1010.7 671.777Q1005.44 671.777 1002.8 674.011Q1000.15 676.246 1000.15 680.049Q1000.15 688.578 1009.13 688.578ZM1009.05 693.154Q1002.62 693.154 998.928 689.867Q995.232 686.558 995.232 680.478Q995.232 674.398 999.271 671.068Q1003.33 667.63 1010.01 667.63Q1016.7 667.63 1021.81 668.168Q1021.81 660.326 1019.88 657.468Q1017.94 654.611 1012.03 654.611Q1006.15 654.611 998.133 657.425L996.801 653.021Q1004.99 650.035 1011.6 650.035Q1020.31 650.035 1023.38 653.902Q1026.47 657.769 1026.47 667.459L1026.47 685.935L1027.18 692.617L1022.69 693.068L1021.81 687.783Q1019.79 689.544 1016.07 691.349Q1012.38 693.154 1009.05 693.154ZM1041.25 692.359L1041.25 687.955L1054.1 687.955L1054.1 654.955L1041.25 654.955L1041.25 650.55L1058.76 650.55L1058.76 687.955L1071.61 687.955L1071.61 692.359L1041.25 692.359ZM1052.25 638.154Q1052.25 636.392 1053.26 635.425Q1054.27 634.459 1056.03 634.459Q1059.64 634.459 1059.64 638.326Q1059.64 642.193 1056.03 642.107Q1052.25 642.107 1052.25 638.154ZM1129.42 650.55L1129.68 653.193Q1134.09 650.035 1136.47 650.035Q1142.27 650.035 1144.48 653.816Q1149.4 650.035 1153.1 650.035Q1158.81 650.035 1160.92 653.558Q1163.05 657.082 1163.05 664.365L1163.05 692.359L1158.39 692.359L1158.39 664.365Q1158.39 659.359 1157.31 656.953Q1156.26 654.525 1153.27 654.525Q1150.29 654.525 1145.88 657.339Q1146.42 660.326 1146.42 664.365L1146.42 678.974L1141.76 678.974L1141.76 664.365Q1141.76 659.359 1140.68 656.974Q1139.54 654.525 1136.56 654.525Q1133.57 654.525 1129.68 657.339L1129.68 692.359L1125.02 692.359L1125.02 650.55L1129.42 650.55ZM1185.13 688.578Q1188.38 688.578 1192.2 686.515Q1196.05 684.431 1197.81 682.669L1197.81 672.207Q1191.99 671.777 1186.7 671.777Q1181.44 671.777 1178.8 674.011Q1176.15 676.246 1176.15 680.049Q1176.15 688.578 1185.13 688.578ZM1185.05 693.154Q1178.62 693.154 1174.93 689.867Q1171.23 686.558 1171.23 680.478Q1171.23 674.398 1175.27 671.068Q1179.33 667.63 1186.01 667.63Q1192.7 667.63 1197.81 668.168Q1197.81 660.326 1195.88 657.468Q1193.94 654.611 1188.03 654.611Q1182.15 654.611 1174.13 657.425L1172.8 653.021Q1180.99 650.035 1187.6 650.035Q1196.3 650.035 1199.38 653.902Q1202.47 657.769 1202.47 667.459L1202.47 685.935L1203.18 692.617L1198.69 693.068L1197.81 687.783Q1195.79 689.544 1192.07 691.349Q1188.38 693.154 1185.05 693.154ZM1247.61 633.922L1247.61 685.054L1248.49 692.703L1244 693.24L1243.12 688.578Q1236.52 693.154 1230.98 693.154Q1223.14 693.154 1218.78 687.353Q1214.44 681.531 1214.44 671.541Q1214.44 661.55 1219.27 655.793Q1224.11 650.035 1232.48 650.035Q1237.4 650.035 1242.95 652.398L1242.95 633.922L1247.61 633.922ZM1219.44 671.433Q1219.44 679.168 1222.47 683.873Q1225.52 688.578 1231.24 688.578Q1236.95 688.578 1242.95 683.55L1242.95 657.168Q1241.1 656.287 1237.88 655.449Q1234.68 654.611 1232.66 654.611Q1226.4 654.611 1222.92 659.144Q1219.44 663.677 1219.44 671.433ZM1259.83 671.498Q1259.83 661.379 1264.02 655.707Q1268.21 650.035 1276.21 650.035Q1284.22 650.035 1288.13 655.32Q1292.06 660.584 1292.06 669.392L1291.78 673.797L1264.86 673.797Q1265.29 680.392 1268.36 684.496Q1271.46 688.578 1276.87 688.578Q1282.29 688.578 1289.59 686.021L1290.9 690.425Q1283.79 693.154 1277.54 693.154Q1268.9 693.154 1264.37 687.396Q1259.83 681.617 1259.83 671.498ZM1276.57 654.525Q1265.48 654.525 1264.86 669.392L1287.03 669.392Q1287.03 654.525 1276.57 654.525ZM1350.3 692.359L1350.3 687.955L1363.78 687.955L1363.78 638.154L1350.67 638.24L1350.56 633.922L1368.44 633.836L1368.44 687.955L1382.34 687.955L1382.34 692.359L1350.3 692.359ZM1391.15 671.605Q1391.15 650.035 1407.95 650.035Q1424.75 650.035 1424.75 671.605Q1424.75 693.154 1407.95 693.154Q1391.15 693.154 1391.15 671.605ZM1407.95 654.611Q1396.15 654.611 1396.15 671.605Q1396.15 688.578 1407.95 688.578Q1419.74 688.578 1419.74 671.605Q1419.74 654.611 1407.95 654.611ZM1465.85 651.968L1464.8 656.544Q1459.34 654.611 1454.68 654.611Q1448.34 654.611 1445.2 659.058Q1442.09 663.505 1442.09 671.433Q1442.09 679.339 1445.24 683.959Q1448.42 688.578 1454.68 688.578Q1458.91 688.578 1465.23 686.279L1466.64 690.683Q1460.22 693.154 1454.76 693.154Q1446.15 693.154 1441.57 687.396Q1436.99 681.617 1436.99 671.326Q1436.99 661.035 1441.46 655.535Q1445.95 650.035 1454.68 650.035Q1460.22 650.035 1465.85 651.968ZM1493.13 688.578Q1496.38 688.578 1500.2 686.515Q1504.05 684.431 1505.81 682.669L1505.81 672.207Q1499.99 671.777 1494.7 671.777Q1489.44 671.777 1486.8 674.011Q1484.15 676.246 1484.15 680.049Q1484.15 688.578 1493.13 688.578ZM1493.05 693.154Q1486.62 693.154 1482.93 689.867Q1479.23 686.558 1479.23 680.478Q1479.23 674.398 1483.27 671.068Q1487.33 667.63 1494.01 667.63Q1500.7 667.63 1505.81 668.168Q1505.81 660.326 1503.88 657.468Q1501.94 654.611 1496.03 654.611Q1490.15 654.611 1482.13 657.425L1480.8 653.021Q1488.99 650.035 1495.6 650.035Q1504.3 650.035 1507.38 653.902Q1510.47 657.769 1510.47 667.459L1510.47 685.935L1511.18 692.617L1506.69 693.068L1505.81 687.783Q1503.79 689.544 1500.07 691.349Q1496.38 693.154 1493.05 693.154ZM1526.3 692.359L1526.3 687.955L1539.78 687.955L1539.78 638.154L1526.67 638.24L1526.56 633.922L1544.44 633.836L1544.44 687.955L1558.34 687.955L1558.34 692.359L1526.3 692.359Z"/></svg>