<?xml version="1.0" encoding="utf-8" ?><svg xmlns="http://www.w3.org/2000/svg" xmlns:xlink="http://www.w3.org/1999/xlink" width="2242" height="759" viewBox="0 0 2242 759"><path fill="#FDB874" transform="scale(1.00016 0.999629)" d="M1703.1 155.027C1718 167.75 1732.61 180.958 1747.29 193.943C1779.44 225.727 1813.79 252.873 1844.31 286.477C1846.46 271.019 1844.16 257.999 1842.22 246.976C1840.44 236.889 1838.95 228.475 1841.44 221.396C1849.64 213.367 1861.89 216.335 1863.28 228.346C1860.97 235.757 1859.17 237.19 1853.68 242.325L1852.03 243.863C1851.42 258.527 1851.47 273.628 1851.52 288.489C1851.53 291.832 1851.54 295.163 1851.54 298.474L1918.44 298.474C1924.03 291.221 1927.08 287.205 1936.56 286.845C1946.38 291.491 1947.47 298.162 1942.32 307.76C1942.12 307.914 1941.88 308.093 1941.62 308.288C1939.61 309.808 1936.28 312.317 1934.55 311.558C1913.91 302.479 1891.43 303.275 1868.36 304.091C1862.83 304.286 1857.27 304.483 1851.69 304.545C1851.02 316.425 1851.06 328.576 1851.09 340.583C1851.1 343.312 1851.11 346.035 1851.11 348.744L1919.34 347.92C1926.06 340.992 1927.21 340.196 1935.55 339.056C1945.31 343.627 1946.12 349.265 1942.34 359.295C1939.67 361.813 1938.98 362.771 1938.04 363.201C1937.09 363.641 1935.89 363.531 1932.05 363.973C1925.27 361.956 1923.36 359.002 1918.42 353.894C1895.28 353.421 1874.4 353.237 1851.2 353.911C1850.71 368.053 1850.85 381.767 1850.99 395.86L1851.02 398.377C1897.27 399.329 1935.21 400.054 1981.37 397.421L1994.52 382.008C1996.11 328.201 1996.32 277.273 1996.32 223.426C1981.14 213.262 1966.03 202.146 1951.17 191.456C1910.15 189.187 1862.4 189.701 1817.68 190.181C1802.74 190.342 1788.14 190.499 1774.24 190.547L1749.92 190.593C1727.4 169.771 1705.15 149.353 1684.42 126.761C1683.12 125.339 1678.18 124.233 1676.04 124.36L1674.61 127.309C1681.22 142.247 1691.61 145.212 1703.1 155.027Z"/><path fill="#FDB874" transform="scale(1.00016 0.999629)" d="M650.533 256.548C615.121 255.548 572.311 254.339 547.446 256.231C466.209 258.83 463.636 302.079 466.84 371.807C467.147 378.486 467 386.395 466.842 394.955C466.266 426.089 465.53 465.837 485.868 486.341C514.036 508.117 566.341 506.28 607.097 504.849C615.548 504.553 623.503 504.273 630.642 504.226C644.613 504.072 669.403 497.36 676.68 487.113C689.62 468.899 688.631 421.215 687.951 388.442C687.788 380.536 687.642 373.498 687.714 367.951L569.22 368.225C569.209 369.344 569.161 370.849 569.104 372.601C568.82 381.422 568.336 396.495 571.43 400.012L649.618 400.035C649.658 403.232 649.719 406.424 649.781 409.613C650.137 428.183 650.491 446.607 646.651 464.836C625.053 472.07 517.625 486.74 511.018 455.812C502.682 416.798 500.702 338.162 513.604 300.891C519.872 282.788 632.234 286.803 673.626 288.282C678.942 288.472 683.087 288.62 685.687 288.674L685.651 257.407C675.835 257.263 663.695 256.92 650.533 256.548Z"/><path fill="#FDB874" transform="scale(1.00016 0.999629)" d="M938.565 256.978C894.761 256.677 850.506 256.372 807.822 257.074L807.858 505.322L1002.85 505.322L1002.81 473.575L846.519 473.575L846.575 396.823L872.811 396.823L982.225 396.583L982.168 365.295L846.237 365.295L846.463 288.706C884.983 287.299 926.594 287.799 966.718 288.281C978.825 288.426 990.797 288.57 1002.51 288.659L1002.28 257.3C981.308 257.272 959.991 257.125 938.565 256.978Z"/><path fill="#FDB874" transform="scale(1.00016 0.999629)" d="M416.362 408.49L270.436 408.49L270.436 531.254C286.324 542.519 302.468 554.254 318.497 565.239L339.912 565.419L339.859 504.69L338.124 503.118C314.457 481.517 342.641 466.365 355.723 481.883C357.608 489.607 354.611 495.756 351.596 501.942C348.599 508.092 345.584 514.279 347.33 522.088C347.337 523.026 347.345 523.968 347.352 524.908L347.409 565.419L417.053 565.419L416.362 408.49Z"/><path fill="#FDB874" transform="scale(1.00016 0.999629)" d="M1932.9 454.313C1905.33 454.099 1878.07 453.888 1850.1 454.802C1851.28 476.318 1851.67 494.697 1851.58 516.256C1854.85 516.352 1858.12 516.454 1861.39 516.556C1885.59 517.311 1909.69 518.062 1933.91 516.493C1934.79 515.86 1935.65 515.22 1936.5 514.588C1945.39 507.992 1953.21 502.191 1962.14 512.863C1964.3 523.723 1961.52 529.168 1950.93 531.647C1917.54 520.446 1901.55 521.126 1873.61 522.314C1867.04 522.593 1859.82 522.901 1851.56 523.089L1851.35 566.23C1882.96 564.683 1922.79 564.735 1954.72 565.584L1967.17 557.178C2015.47 524.343 2061.43 488.336 2109.15 454.836C2076.6 454.039 2044.21 454.203 2011.78 454.367C1996.29 454.445 1980.79 454.524 1965.26 454.498C1954.38 454.48 1943.62 454.396 1932.9 454.313Z"/><path fill="#FDB874" transform="scale(1.00016 0.999629)" d="M220.676 306.277C200.754 306.479 180.491 306.684 161.436 305.956C163.499 345.522 162.763 382.422 161.981 421.573C161.924 424.436 161.866 427.312 161.81 430.202L262.879 430.202L262.828 363.37L216.451 364.058C210.719 368.37 208.875 370.347 201.536 370.984C194.142 368.449 196.626 370.306 192.11 364.065C191.007 357.502 191.107 356.741 193.952 350.728C204.98 342.027 210.021 347.476 217.804 355.889C218.134 356.246 218.469 356.608 218.809 356.974L252.124 356.702C259.976 354.998 269.137 348.493 272.506 348.188C286.842 346.898 302.47 347.083 317.235 347.258C319.359 347.283 321.465 347.308 323.547 347.328L415.885 348.367L415.827 306.431L248.569 306.093C239.457 306.087 230.105 306.182 220.676 306.277Z"/><path fill="#FDB874" transform="scale(1.00016 0.999629)" d="M416.037 191.259L314.438 191.361C266.81 222.748 212.436 261.863 168.42 298.442C221.851 299.348 276.337 299.094 330.535 298.841C357.105 298.717 383.606 298.593 409.879 298.607L414.06 297.24C418.272 286.058 417.256 262.145 416.595 246.583C416.496 244.265 416.406 242.133 416.341 240.255L337.05 240.255C336.599 240.759 336.16 241.254 335.731 241.738C328.256 250.165 323.809 255.179 312.733 246.927C309.42 240.741 309.328 239.923 309.955 232.919C313.651 226.408 311.499 228.44 317.967 225.075C326.64 224.594 329.654 227.013 335.972 232.715L416.077 233.182L416.037 191.259Z"/><path fill="#FDB874" transform="scale(1.00016 0.999629)" d="M1454.9 257.159L1415.9 256.979L1416.59 505.497C1427.38 505.575 1438.23 505.675 1449.11 505.775C1499.25 506.237 1550.18 506.705 1599.76 505.082L1599.94 473.582L1454.55 473.582C1455.9 408.934 1455.47 343.052 1455.04 278.079C1454.99 271.094 1454.95 264.12 1454.9 257.159Z"/><path fill="#FDB874" transform="scale(1.00016 0.999629)" d="M1154.85 257.157L1116.5 257.157L1116.86 505.191C1130.84 505.105 1144.87 504.992 1158.91 504.88C1206.91 504.495 1255.14 504.109 1302.9 504.755C1302.95 502.594 1303.01 500.407 1303.07 498.206C1303.29 490.002 1303.52 481.597 1303.35 473.582L1154.66 473.582L1154.85 257.157Z"/><path fill="#FDB874" transform="scale(1.00016 0.999629)" d="M1993.69 410.884C1992.39 411.23 1984.32 405.376 1982.68 404.09L1850.66 403.915L1850.81 448.817L2023.74 448.965C2026.03 448.966 2029.43 448.993 2033.58 449.026C2055.22 449.196 2097 449.526 2105.32 447.188L2106.86 444.891L2107.12 404.386C2100.94 404.27 2094.89 404.099 2088.94 403.931C2056.31 403.009 2026.6 402.169 1993.69 410.884Z"/><path fill="#FDB874" transform="scale(1.00016 0.999629)" d="M1759.72 256.862L1722.24 256.862L1722.28 505.645L1759.59 505.722L1759.72 256.862Z"/><path fill="#FDB874" transform="scale(1.00016 0.999629)" d="M2107.08 298.943C2071.65 276.655 2037.65 249.422 2002.97 228.626C2000.97 258.525 2001.38 292.022 2001.75 322.686C2001.78 325.278 2001.81 327.85 2001.84 330.398L2107.12 330.543L2107.08 298.943Z"/><path fill="#FDB874" transform="scale(1.00016 0.999629)" d="M416.009 355.124L270.47 355.113L270.489 400.317L416.219 400.255L416.009 355.124Z"/><path fill="#FDB874" transform="scale(1.00016 0.999629)" d="M2107.14 337.125L2002.01 337.125C2001.95 338.24 2001.88 339.388 2001.81 340.563C2000.35 365.184 1998.17 401.901 2032.19 400.944C2041.41 400.684 2050.41 400.218 2059.36 399.754C2074.97 398.945 2090.45 398.143 2106.76 398.454C2107.14 377.949 2107.16 357.631 2107.14 337.125Z"/><path fill="#FDB874" transform="scale(1.00016 0.999629)" d="M582.764 128.47C562.851 149.892 541.482 169.921 520.194 189.95C516.484 189.94 511.574 189.894 505.915 189.841C480.079 189.601 438.63 189.216 424.457 191.336C422.609 226.748 422.607 249.519 425.121 284.817C456.749 254.952 491.282 225.058 521.588 194.596C538.582 181.734 551.901 164.708 567.965 150.662C577.502 142.324 595.317 140.401 597.043 126.761L594.389 125.269C591.279 125.395 584.856 126.22 582.764 128.47Z"/><path fill="#FDB874" transform="scale(1.00016 0.999629)" d="M521.105 562.506C489.417 532.141 458.142 501.747 424.579 473.424C424.543 478.403 424.504 483.383 424.465 488.364C424.265 514.047 424.064 539.75 424.297 565.419C426.959 565.418 431.141 565.449 436.226 565.486C457.158 565.641 493.411 565.908 502.163 564.527L502.247 564.526C504.926 564.475 512.981 564.322 514.778 565.53C533.857 578.359 553.227 598.328 568.585 615.296C576.591 624.139 575.524 630.453 584.676 635.246C588.242 634.672 589.362 634.761 590.194 634.314C590.973 633.895 591.501 633.008 593.544 630.673C593.328 629.142 593.114 627.613 592.898 626.083C571.678 609.723 538.854 579.284 521.105 562.506Z"/><path fill="#FDB874" transform="scale(1.00016 0.999629)" d="M254.876 437.563C224.958 437.292 196.135 437.03 166.022 438.333L162.474 440.803C160.38 459.171 220.089 497.835 248.742 516.388C253.249 519.307 256.988 521.728 259.596 523.494L261.944 521.795C263.807 508.903 263.469 469.782 263.279 447.815C263.244 443.74 263.214 440.254 263.204 437.637C260.417 437.613 257.642 437.588 254.876 437.563Z"/><path fill="#FDB874" transform="scale(1.00016 0.999629)" d="M1844.38 562.419C1845.3 544.779 1848.43 485.297 1842.09 478.7L1742.18 566.067C1726.78 579.692 1711.65 593.683 1696.55 607.652C1687.38 616.144 1679.31 618.631 1669.19 625.223C1667.53 631.07 1669.91 633.755 1673.68 638.003C1673.98 638.338 1674.28 638.683 1674.59 639.039C1682.88 635.03 1691.55 621.078 1699.06 613.175C1715.44 595.971 1732.34 581.392 1750.54 566.229C1781.89 565.87 1812.85 565.539 1844.2 565.872C1844.24 565.039 1844.3 563.871 1844.38 562.419Z"/><path fill="#FDB874" transform="scale(1.00016 0.999629)" d="M651.81 602.359Q646.585 602.359 643.795 598.762Q641.02 595.166 641.02 588.581Q641.02 581.997 644.121 578.23Q647.222 574.464 652.801 574.464Q655.874 574.464 659.697 576.488L659.81 574.803L662.77 574.803L662.77 595.69Q663.648 602.586 663.648 603.69Q663.648 608.802 660.221 611.379Q656.794 613.956 652.178 613.956Q647.576 613.956 641.714 611.634L642.761 608.745Q648.496 610.94 651.951 610.94Q655.406 610.94 657.984 609.142Q660.561 607.343 660.561 603.747L660.051 599.173Q655.463 602.359 651.81 602.359ZM652.914 577.366Q648.794 577.366 646.471 580.411Q644.149 583.455 644.149 588.539Q644.149 593.608 646.174 596.539Q648.213 599.456 651.866 599.456Q655.52 599.456 659.697 595.973L659.697 579.745Q655.93 577.366 652.914 577.366ZM670.827 588.609Q670.827 581.94 673.588 578.202Q676.349 574.464 681.617 574.464Q686.899 574.464 689.476 577.947Q692.067 581.416 692.067 587.222L691.883 590.125L674.14 590.125Q674.424 594.472 676.449 597.176Q678.488 599.867 682.056 599.867Q685.624 599.867 690.439 598.182L691.302 601.085Q686.616 602.883 682.495 602.883Q676.802 602.883 673.815 599.088Q670.827 595.279 670.827 588.609ZM681.858 577.423Q674.551 577.423 674.14 587.222L688.754 587.222Q688.754 577.423 681.858 577.423ZM703.31 574.803L703.424 577.126Q709.059 574.464 712.769 574.464Q716.479 574.464 718.589 577.012Q720.713 579.561 720.713 583.979L720.713 602.359L717.641 602.359L717.641 583.979Q717.641 581.133 716.253 579.278Q714.851 577.48 712.061 577.48Q709.286 577.48 703.424 580.028L703.424 602.359L700.351 602.359L700.351 574.803L703.31 574.803ZM728.827 588.609Q728.827 581.94 731.588 578.202Q734.349 574.464 739.617 574.464Q744.899 574.464 747.476 577.947Q750.067 581.416 750.067 587.222L749.883 590.125L732.141 590.125Q732.424 594.472 734.449 597.176Q736.488 599.867 740.056 599.867Q743.624 599.867 748.439 598.182L749.303 601.085Q744.616 602.883 740.495 602.883Q734.803 602.883 731.815 599.088Q728.827 595.279 728.827 588.609ZM739.858 577.423Q732.551 577.423 732.141 587.222L746.754 587.222Q746.754 577.423 739.858 577.423ZM758.648 602.359L758.648 599.456L765.261 599.456L765.261 577.706L758.648 577.706L758.648 574.803L768.334 574.803L768.447 578.174Q770.302 577.012 773.658 575.851Q777.028 574.69 779.577 574.464L780.214 574.464L780.214 577.876L779.577 577.876Q777.198 578.06 773.686 579.051Q770.189 580.028 768.447 581.076L768.447 599.456L777.722 599.456L777.722 602.359L758.648 602.359ZM795.592 599.867Q797.73 599.867 800.251 598.507Q802.786 597.134 803.947 595.973L803.947 589.077Q800.109 588.794 796.626 588.794Q793.157 588.794 791.415 590.266Q789.673 591.739 789.673 594.245Q789.673 599.867 795.592 599.867ZM795.536 602.883Q791.302 602.883 788.866 600.716Q786.431 598.536 786.431 594.528Q786.431 590.521 789.093 588.326Q791.769 586.061 796.173 586.061Q800.577 586.061 803.947 586.415Q803.947 581.246 802.672 579.363Q801.398 577.48 797.504 577.48Q793.624 577.48 788.342 579.335L787.464 576.432Q792.859 574.464 797.221 574.464Q802.956 574.464 804.98 577.012Q807.019 579.561 807.019 585.947L807.019 598.125L807.487 602.529L804.527 602.826L803.947 599.343Q802.616 600.504 800.166 601.693Q797.73 602.883 795.536 602.883ZM817.456 602.359L817.456 599.456L826.334 599.456L826.334 566.633L817.696 566.69L817.625 563.843L829.407 563.787L829.407 599.456L838.568 599.456L838.568 602.359L817.456 602.359ZM873.827 588.609Q873.827 581.94 876.588 578.202Q879.35 574.464 884.617 574.464Q889.899 574.464 892.476 577.947Q895.067 581.416 895.067 587.222L894.883 590.125L877.141 590.125Q877.424 594.472 879.449 597.176Q881.488 599.867 885.056 599.867Q888.625 599.867 893.439 598.182L894.303 601.085Q889.616 602.883 885.495 602.883Q879.803 602.883 876.815 599.088Q873.827 595.279 873.827 588.609ZM884.858 577.423Q877.551 577.423 877.141 587.222L891.754 587.222Q891.754 577.423 884.858 577.423ZM923.77 563.843L923.77 597.544L924.351 602.586L921.391 602.94L920.811 599.867Q916.464 602.883 912.81 602.883Q907.642 602.883 904.767 599.06Q901.907 595.222 901.907 588.638Q901.907 582.053 905.093 578.258Q908.279 574.464 913.801 574.464Q917.044 574.464 920.697 576.021L920.697 563.843L923.77 563.843ZM905.206 588.567Q905.206 593.665 907.203 596.766Q909.214 599.867 912.98 599.867Q916.747 599.867 920.697 596.553L920.697 579.165Q919.48 578.584 917.356 578.032Q915.246 577.48 913.915 577.48Q909.794 577.48 907.5 580.467Q905.206 583.455 905.206 588.567ZM941.81 602.359Q936.585 602.359 933.796 598.762Q931.02 595.166 931.02 588.581Q931.02 581.997 934.121 578.23Q937.222 574.464 942.801 574.464Q945.874 574.464 949.697 576.488L949.811 574.803L952.77 574.803L952.77 595.69Q953.648 602.586 953.648 603.69Q953.648 608.802 950.221 611.379Q946.795 613.956 942.178 613.956Q937.576 613.956 931.714 611.634L932.762 608.745Q938.497 610.94 941.952 610.94Q945.407 610.94 947.984 609.142Q950.561 607.343 950.561 603.747L950.051 599.173Q945.464 602.359 941.81 602.359ZM942.915 577.366Q938.794 577.366 936.472 580.411Q934.15 583.455 934.15 588.539Q934.15 593.608 936.175 596.539Q938.214 599.456 941.867 599.456Q945.52 599.456 949.697 595.973L949.697 579.745Q945.931 577.366 942.915 577.366ZM960.827 588.609Q960.827 581.94 963.589 578.202Q966.35 574.464 971.617 574.464Q976.899 574.464 979.476 577.947Q982.068 581.416 982.068 587.222L981.884 590.125L964.141 590.125Q964.424 594.472 966.449 597.176Q968.488 599.867 972.056 599.867Q975.625 599.867 980.439 598.182L981.303 601.085Q976.616 602.883 972.495 602.883Q966.803 602.883 963.815 599.088Q960.827 595.279 960.827 588.609ZM971.858 577.423Q964.552 577.423 964.141 587.222L978.754 587.222Q978.754 577.423 971.858 577.423ZM1020.46 602.359L1020.46 599.456L1029.33 599.456L1029.33 566.633L1020.7 566.69L1020.63 563.843L1032.41 563.787L1032.41 599.456L1041.57 599.456L1041.57 602.359L1020.46 602.359ZM1047.37 588.68Q1047.37 574.464 1058.45 574.464Q1069.52 574.464 1069.52 588.68Q1069.52 602.883 1058.45 602.883Q1047.37 602.883 1047.37 588.68ZM1058.45 577.48Q1050.67 577.48 1050.67 588.68Q1050.67 599.867 1058.45 599.867Q1066.22 599.867 1066.22 588.68Q1066.22 577.48 1058.45 577.48ZM1096.61 575.738L1095.92 578.754Q1092.32 577.48 1089.25 577.48Q1085.07 577.48 1083 580.411Q1080.95 583.342 1080.95 588.567Q1080.95 593.778 1083.03 596.822Q1085.13 599.867 1089.25 599.867Q1092.04 599.867 1096.2 598.352L1097.13 601.255Q1092.9 602.883 1089.3 602.883Q1083.62 602.883 1080.61 599.088Q1077.59 595.279 1077.59 588.496Q1077.59 581.714 1080.54 578.089Q1083.5 574.464 1089.25 574.464Q1092.9 574.464 1096.61 575.738ZM1114.59 599.867Q1116.73 599.867 1119.25 598.507Q1121.79 597.134 1122.95 595.973L1122.95 589.077Q1119.11 588.794 1115.63 588.794Q1112.16 588.794 1110.42 590.266Q1108.67 591.739 1108.67 594.245Q1108.67 599.867 1114.59 599.867ZM1114.54 602.883Q1110.3 602.883 1107.87 600.716Q1105.43 598.536 1105.43 594.528Q1105.43 590.521 1108.09 588.326Q1110.77 586.061 1115.17 586.061Q1119.58 586.061 1122.95 586.415Q1122.95 581.246 1121.67 579.363Q1120.4 577.48 1116.5 577.48Q1112.62 577.48 1107.34 579.335L1106.47 576.432Q1111.86 574.464 1116.22 574.464Q1121.96 574.464 1123.98 577.012Q1126.02 579.561 1126.02 585.947L1126.02 598.125L1126.49 602.529L1123.53 602.826L1122.95 599.343Q1121.62 600.504 1119.17 601.693Q1116.73 602.883 1114.54 602.883ZM1136.46 602.359L1136.46 599.456L1145.33 599.456L1145.33 566.633L1136.7 566.69L1136.63 563.843L1148.41 563.787L1148.41 599.456L1157.57 599.456L1157.57 602.359L1136.46 602.359ZM1194.46 602.359L1194.46 599.456L1203.33 599.456L1203.33 566.633L1194.7 566.69L1194.63 563.843L1206.41 563.787L1206.41 599.456L1215.57 599.456L1215.57 602.359L1194.46 602.359ZM1223.46 602.359L1223.46 599.456L1232.33 599.456L1232.33 566.633L1223.7 566.69L1223.63 563.843L1235.41 563.787L1235.41 599.456L1244.57 599.456L1244.57 602.359L1223.46 602.359ZM1259.59 599.867Q1261.73 599.867 1264.25 598.507Q1266.79 597.134 1267.95 595.973L1267.95 589.077Q1264.11 588.794 1260.63 588.794Q1257.16 588.794 1255.42 590.266Q1253.67 591.739 1253.67 594.245Q1253.67 599.867 1259.59 599.867ZM1259.54 602.883Q1255.3 602.883 1252.87 600.716Q1250.43 598.536 1250.43 594.528Q1250.43 590.521 1253.09 588.326Q1255.77 586.061 1260.17 586.061Q1264.58 586.061 1267.95 586.415Q1267.95 581.246 1266.67 579.363Q1265.4 577.48 1261.51 577.48Q1257.62 577.48 1252.34 579.335L1251.47 576.432Q1256.86 574.464 1261.22 574.464Q1266.96 574.464 1268.98 577.012Q1271.02 579.561 1271.02 585.947L1271.02 598.125L1271.49 602.529L1268.53 602.826L1267.95 599.343Q1266.62 600.504 1264.17 601.693Q1261.73 602.883 1259.54 602.883ZM1280.88 574.803L1281.05 576.545Q1283.95 574.464 1285.52 574.464Q1289.34 574.464 1290.8 576.956Q1294.05 574.464 1296.48 574.464Q1300.25 574.464 1301.64 576.786Q1303.04 579.108 1303.04 583.908L1303.04 602.359L1299.96 602.359L1299.96 583.908Q1299.96 580.609 1299.26 579.023Q1298.56 577.423 1296.59 577.423Q1294.62 577.423 1291.72 579.278Q1292.08 581.246 1292.08 583.908L1292.08 593.537L1289 593.537L1289 583.908Q1289 580.609 1288.3 579.037Q1287.55 577.423 1285.58 577.423Q1283.61 577.423 1281.05 579.278L1281.05 602.359L1277.97 602.359L1277.97 574.803L1280.88 574.803ZM1317.59 599.867Q1319.73 599.867 1322.25 598.507Q1324.79 597.134 1325.95 595.973L1325.95 589.077Q1322.11 588.794 1318.63 588.794Q1315.16 588.794 1313.42 590.266Q1311.67 591.739 1311.67 594.245Q1311.67 599.867 1317.59 599.867ZM1317.54 602.883Q1313.3 602.883 1310.87 600.716Q1308.43 598.536 1308.43 594.528Q1308.43 590.521 1311.09 588.326Q1313.77 586.061 1318.17 586.061Q1322.58 586.061 1325.95 586.415Q1325.95 581.246 1324.67 579.363Q1323.4 577.48 1319.51 577.48Q1315.62 577.48 1310.34 579.335L1309.47 576.432Q1314.86 574.464 1319.22 574.464Q1324.96 574.464 1326.98 577.012Q1329.02 579.561 1329.02 585.947L1329.02 598.125L1329.49 602.529L1326.53 602.826L1325.95 599.343Q1324.62 600.504 1322.17 601.693Q1319.73 602.883 1317.54 602.883ZM1367.76 602.359L1367.76 599.456L1376.23 599.456L1376.23 577.706L1367.76 577.706L1367.76 574.803L1379.3 574.803L1379.3 599.456L1387.77 599.456L1387.77 602.359L1367.76 602.359ZM1375.01 566.633Q1375.01 565.472 1375.68 564.835Q1376.34 564.197 1377.51 564.197Q1379.88 564.197 1379.88 566.746Q1379.88 569.295 1377.51 569.238Q1375.01 569.238 1375.01 566.633ZM1399.31 574.803L1399.43 577.126Q1405.06 574.464 1408.77 574.464Q1412.48 574.464 1414.59 577.012Q1416.72 579.561 1416.72 583.979L1416.72 602.359L1413.64 602.359L1413.64 583.979Q1413.64 581.133 1412.25 579.278Q1410.85 577.48 1408.06 577.48Q1405.29 577.48 1399.43 580.028L1399.43 602.359L1396.35 602.359L1396.35 574.803L1399.31 574.803ZM1425.47 601.028L1426.23 598.012Q1431.97 599.924 1435.09 599.924Q1438.24 599.924 1439.94 598.564Q1441.65 597.19 1441.65 594.939Q1441.65 592.674 1440.29 591.597Q1438.93 590.521 1434.64 589.544Q1430.35 588.553 1428.2 586.698Q1426.05 584.956 1426.05 581.487Q1426.05 578.004 1428.68 576.177Q1431.33 574.35 1435.51 574.35Q1439.68 574.35 1444.55 576.205L1443.75 578.924Q1438.82 577.31 1435.8 577.31Q1432.79 577.31 1431.05 578.343Q1429.3 579.505 1429.3 581.487Q1429.3 583.455 1430.83 584.56Q1432.38 585.65 1436.78 586.755Q1441.2 587.859 1443.05 589.572Q1444.91 591.286 1444.91 594.939Q1444.91 598.592 1442.42 600.731Q1439.97 602.883 1435.45 602.883Q1430.93 602.883 1425.47 601.028ZM1453.19 578.457L1453.19 575.568L1458.83 575.568L1458.83 568.544L1461.9 567.964L1461.9 575.568L1475.18 575.568L1475.18 578.457L1461.9 578.457L1461.9 591.682Q1461.9 596.1 1463.2 598.04Q1464.51 599.98 1467.88 599.98Q1469.15 599.98 1471.81 599.555Q1474.49 599.116 1475.47 598.762L1476.16 601.609Q1475.07 602.005 1472.14 602.472Q1469.21 602.94 1467.88 602.94Q1462.65 602.94 1460.74 600.193Q1458.83 597.431 1458.83 591.81L1458.83 578.457L1453.19 578.457ZM1491.59 599.867Q1493.73 599.867 1496.25 598.507Q1498.79 597.134 1499.95 595.973L1499.95 589.077Q1496.11 588.794 1492.63 588.794Q1489.16 588.794 1487.42 590.266Q1485.68 591.739 1485.68 594.245Q1485.68 599.867 1491.59 599.867ZM1491.54 602.883Q1487.3 602.883 1484.87 600.716Q1482.43 598.536 1482.43 594.528Q1482.43 590.521 1485.09 588.326Q1487.77 586.061 1492.17 586.061Q1496.58 586.061 1499.95 586.415Q1499.95 581.246 1498.67 579.363Q1497.4 577.48 1493.51 577.48Q1489.62 577.48 1484.34 579.335L1483.47 576.432Q1488.86 574.464 1493.22 574.464Q1498.96 574.464 1500.98 577.012Q1503.02 579.561 1503.02 585.947L1503.02 598.125L1503.49 602.529L1500.53 602.826L1499.95 599.343Q1498.62 600.504 1496.17 601.693Q1493.73 602.883 1491.54 602.883ZM1515.31 574.803L1515.43 577.126Q1521.06 574.464 1524.77 574.464Q1528.48 574.464 1530.59 577.012Q1532.72 579.561 1532.72 583.979L1532.72 602.359L1529.64 602.359L1529.64 583.979Q1529.64 581.133 1528.25 579.278Q1526.85 577.48 1524.06 577.48Q1521.29 577.48 1515.43 580.028L1515.43 602.359L1512.35 602.359L1512.35 574.803L1515.31 574.803ZM1560.61 575.738L1559.92 578.754Q1556.32 577.48 1553.25 577.48Q1549.07 577.48 1547 580.411Q1544.95 583.342 1544.95 588.567Q1544.95 593.778 1547.03 596.822Q1549.13 599.867 1553.25 599.867Q1556.04 599.867 1560.2 598.352L1561.13 601.255Q1556.9 602.883 1553.3 602.883Q1547.63 602.883 1544.61 599.088Q1541.59 595.279 1541.59 588.496Q1541.59 581.714 1544.54 578.089Q1547.5 574.464 1553.25 574.464Q1556.9 574.464 1560.61 575.738ZM1569.83 588.609Q1569.83 581.94 1572.59 578.202Q1575.35 574.464 1580.62 574.464Q1585.9 574.464 1588.48 577.947Q1591.07 581.416 1591.07 587.222L1590.89 590.125L1573.14 590.125Q1573.43 594.472 1575.45 597.176Q1577.49 599.867 1581.06 599.867Q1584.63 599.867 1589.44 598.182L1590.3 601.085Q1585.62 602.883 1581.5 602.883Q1575.8 602.883 1572.82 599.088Q1569.83 595.279 1569.83 588.609ZM1580.86 577.423Q1573.55 577.423 1573.14 587.222L1587.76 587.222Q1587.76 577.423 1580.86 577.423ZM1599.47 601.028L1600.23 598.012Q1605.97 599.924 1609.09 599.924Q1612.24 599.924 1613.94 598.564Q1615.65 597.19 1615.65 594.939Q1615.65 592.674 1614.29 591.597Q1612.93 590.521 1608.64 589.544Q1604.35 588.553 1602.2 586.698Q1600.05 584.956 1600.05 581.487Q1600.05 578.004 1602.68 576.177Q1605.33 574.35 1609.51 574.35Q1613.68 574.35 1618.55 576.205L1617.75 578.924Q1612.82 577.31 1609.8 577.31Q1606.79 577.31 1605.05 578.343Q1603.3 579.505 1603.3 581.487Q1603.3 583.455 1604.83 584.56Q1606.38 585.65 1610.78 586.755Q1615.2 587.859 1617.05 589.572Q1618.91 591.286 1618.91 594.939Q1618.91 598.592 1616.42 600.731Q1613.97 602.883 1609.45 602.883Q1604.93 602.883 1599.47 601.028Z"/></svg>