<?xml version="1.0" encoding="utf-8" ?><svg xmlns="http://www.w3.org/2000/svg" xmlns:xlink="http://www.w3.org/1999/xlink" width="2242" height="759" viewBox="0 0 2242 759"><path fill="#FDB874" transform="scale(1.00016 0.999629)" d="M1703.1 155.027C1718 167.75 1732.61 180.958 1747.29 193.943C1779.44 225.727 1813.79 252.873 1844.31 286.477C1846.46 271.019 1844.16 257.999 1842.22 246.976C1840.44 236.889 1838.95 228.475 1841.44 221.396C1849.64 213.367 1861.89 216.335 1863.28 228.346C1860.97 235.757 1859.17 237.19 1853.68 242.325L1852.03 243.863C1851.42 258.527 1851.47 273.628 1851.52 288.489C1851.53 291.832 1851.54 295.163 1851.54 298.474L1918.44 298.474C1924.03 291.221 1927.08 287.205 1936.56 286.845C1946.38 291.491 1947.47 298.162 1942.32 307.76C1942.12 307.914 1941.88 308.093 1941.62 308.288C1939.61 309.808 1936.28 312.317 1934.55 311.558C1913.91 302.479 1891.43 303.275 1868.36 304.091C1862.83 304.286 1857.27 304.483 1851.69 304.545C1851.02 316.425 1851.06 328.576 1851.09 340.583C1851.1 343.312 1851.11 346.035 1851.11 348.744L1919.34 347.92C1926.06 340.992 1927.21 340.196 1935.55 339.056C1945.31 343.627 1946.12 349.265 1942.34 359.295C1939.67 361.813 1938.98 362.771 1938.04 363.201C1937.09 363.641 1935.89 363.531 1932.05 363.973C1925.27 361.956 1923.36 359.002 1918.42 353.894C1895.28 353.421 1874.4 353.237 1851.2 353.911C1850.71 368.053 1850.85 381.767 1850.99 395.86L1851.02 398.377C1897.27 399.329 1935.21 400.054 1981.37 397.421L1994.52 382.008C1996.11 328.201 1996.32 277.273 1996.32 223.426C1981.14 213.262 1966.03 202.146 1951.17 191.456C1910.15 189.187 1862.4 189.701 1817.68 190.181C1802.74 190.342 1788.14 190.499 1774.24 190.547L1749.92 190.593C1727.4 169.771 1705.15 149.353 1684.42 126.761C1683.12 125.339 1678.18 124.233 1676.04 124.36L1674.61 127.309C1681.22 142.247 1691.61 145.212 1703.1 155.027Z"/><path fill="#FDB874" transform="scale(1.00016 0.999629)" d="M650.533 256.548C615.121 255.548 572.311 254.339 547.446 256.231C466.209 258.83 463.636 302.079 466.84 371.807C467.147 378.486 467 386.395 466.842 394.955C466.266 426.089 465.53 465.837 485.868 486.341C514.036 508.117 566.341 506.28 607.097 504.849C615.548 504.553 623.503 504.273 630.642 504.226C644.613 504.072 669.403 497.36 676.68 487.113C689.62 468.899 688.631 421.215 687.951 388.442C687.788 380.536 687.642 373.498 687.714 367.951L569.22 368.225C569.209 369.344 569.161 370.849 569.104 372.601C568.82 381.422 568.336 396.495 571.43 400.012L649.618 400.035C649.658 403.232 649.719 406.424 649.781 409.613C650.137 428.183 650.491 446.607 646.651 464.836C625.053 472.07 517.625 486.74 511.018 455.812C502.682 416.798 500.702 338.162 513.604 300.891C519.872 282.788 632.234 286.803 673.626 288.282C678.942 288.472 683.087 288.62 685.687 288.674L685.651 257.407C675.835 257.263 663.695 256.92 650.533 256.548Z"/><path fill="#FDB874" transform="scale(1.00016 0.999629)" d="M938.565 256.978C894.761 256.677 850.506 256.372 807.822 257.074L807.858 505.322L1002.85 505.322L1002.81 473.575L846.519 473.575L846.575 396.823L872.811 396.823L982.225 396.583L982.168 365.295L846.237 365.295L846.463 288.706C884.983 287.299 926.594 287.799 966.718 288.281C978.825 288.426 990.797 288.57 1002.51 288.659L1002.28 257.3C981.308 257.272 959.991 257.125 938.565 256.978Z"/><path fill="#FDB874" transform="scale(1.00016 0.999629)" d="M416.362 408.49L270.436 408.49L270.436 531.254C286.324 542.519 302.468 554.254 318.497 565.239L339.912 565.419L339.859 504.69L338.124 503.118C314.457 481.517 342.641 466.365 355.723 481.883C357.608 489.607 354.611 495.756 351.596 501.942C348.599 508.092 345.584 514.279 347.33 522.088C347.337 523.026 347.345 523.968 347.352 524.908L347.409 565.419L417.053 565.419L416.362 408.49Z"/><path fill="#FDB874" transform="scale(1.00016 0.999629)" d="M1932.9 454.313C1905.33 454.099 1878.07 453.888 1850.1 454.802C1851.28 476.318 1851.67 494.697 1851.58 516.256C1854.85 516.352 1858.12 516.454 1861.39 516.556C1885.59 517.311 1909.69 518.062 1933.91 516.493C1934.79 515.86 1935.65 515.22 1936.5 514.588C1945.39 507.992 1953.21 502.191 1962.14 512.863C1964.3 523.723 1961.52 529.168 1950.93 531.647C1917.54 520.446 1901.55 521.126 1873.61 522.314C1867.04 522.593 1859.82 522.901 1851.56 523.089L1851.35 566.23C1882.96 564.683 1922.79 564.735 1954.72 565.584L1967.17 557.178C2015.47 524.343 2061.43 488.336 2109.15 454.836C2076.6 454.039 2044.21 454.203 2011.78 454.367C1996.29 454.445 1980.79 454.524 1965.26 454.498C1954.38 454.48 1943.62 454.396 1932.9 454.313Z"/><path fill="#FDB874" transform="scale(1.00016 0.999629)" d="M220.676 306.277C200.754 306.479 180.491 306.684 161.436 305.956C163.499 345.522 162.763 382.422 161.981 421.573C161.924 424.436 161.866 427.312 161.81 430.202L262.879 430.202L262.828 363.37L216.451 364.058C210.719 368.37 208.875 370.347 201.536 370.984C194.142 368.449 196.626 370.306 192.11 364.065C191.007 357.502 191.107 356.741 193.952 350.728C204.98 342.027 210.021 347.476 217.804 355.889C218.134 356.246 218.469 356.608 218.809 356.974L252.124 356.702C259.976 354.998 269.137 348.493 272.506 348.188C286.842 346.898 302.47 347.083 317.235 347.258C319.359 347.283 321.465 347.308 323.547 347.328L415.885 348.367L415.827 306.431L248.569 306.093C239.457 306.087 230.105 306.182 220.676 306.277Z"/><path fill="#FDB874" transform="scale(1.00016 0.999629)" d="M416.037 191.259L314.438 191.361C266.81 222.748 212.436 261.863 168.42 298.442C221.851 299.348 276.337 299.094 330.535 298.841C357.105 298.717 383.606 298.593 409.879 298.607L414.06 297.24C418.272 286.058 417.256 262.145 416.595 246.583C416.496 244.265 416.406 242.133 416.341 240.255L337.05 240.255C336.599 240.759 336.16 241.254 335.731 241.738C328.256 250.165 323.809 255.179 312.733 246.927C309.42 240.741 309.328 239.923 309.955 232.919C313.651 226.408 311.499 228.44 317.967 225.075C326.64 224.594 329.654 227.013 335.972 232.715L416.077 233.182L416.037 191.259Z"/><path fill="#FDB874" transform="scale(1.00016 0.999629)" d="M1454.9 257.159L1415.9 256.979L1416.59 505.497C1427.38 505.575 1438.23 505.675 1449.11 505.775C1499.25 506.237 1550.18 506.705 1599.76 505.082L1599.94 473.582L1454.55 473.582C1455.9 408.934 1455.47 343.052 1455.04 278.079C1454.99 271.094 1454.95 264.12 1454.9 257.159Z"/><path fill="#FDB874" transform="scale(1.00016 0.999629)" d="M1154.85 257.157L1116.5 257.157L1116.86 505.191C1130.84 505.105 1144.87 504.992 1158.91 504.88C1206.91 504.495 1255.14 504.109 1302.9 504.755C1302.95 502.594 1303.01 500.407 1303.07 498.206C1303.29 490.002 1303.52 481.597 1303.35 473.582L1154.66 473.582L1154.85 257.157Z"/><path fill="#FDB874" transform="scale(1.00016 0.999629)" d="M1993.69 410.884C1992.39 411.23 1984.32 405.376 1982.68 404.09L1850.66 403.915L1850.81 448.817L2023.74 448.965C2026.03 448.966 2029.43 448.993 2033.58 449.026C2055.22 449.196 2097 449.526 2105.32 447.188L2106.86 444.891L2107.12 404.386C2100.94 404.27 2094.89 404.099 2088.94 403.931C2056.31 403.009 2026.6 402.169 1993.69 410.884Z"/><path fill="#FDB874" transform="scale(1.00016 0.999629)" d="M1759.72 256.862L1722.24 256.862L1722.28 505.645L1759.59 505.722L1759.72 256.862Z"/><path fill="#FDB874" transform="scale(1.00016 0.999629)" d="M2107.08 298.943C2071.65 276.655 2037.65 249.422 2002.97 228.626C2000.97 258.525 2001.38 292.022 2001.75 322.686C2001.78 325.278 2001.81 327.85 2001.84 330.398L2107.12 330.543L2107.08 298.943Z"/><path fill="#FDB874" transform="scale(1.00016 0.999629)" d="M416.009 355.124L270.47 355.113L270.489 400.317L416.219 400.255L416.009 355.124Z"/><path fill="#FDB874" transform="scale(1.00016 0.999629)" d="M2107.14 337.125L2002.01 337.125C2001.95 338.24 2001.88 339.388 2001.81 340.563C2000.35 365.184 1998.17 401.901 2032.19 400.944C2041.41 400.684 2050.41 400.218 2059.36 399.754C2074.97 398.945 2090.45 398.143 2106.76 398.454C2107.14 377.949 2107.16 357.631 2107.14 337.125Z"/><path fill="#FDB874" transform="scale(1.00016 0.999629)" d="M582.764 128.47C562.851 149.892 541.482 169.921 520.194 189.95C516.484 189.94 511.574 189.894 505.915 189.841C480.079 189.601 438.63 189.216 424.457 191.336C422.609 226.748 422.607 249.519 425.121 284.817C456.749 254.952 491.282 225.058 521.588 194.596C538.582 181.734 551.901 164.708 567.965 150.662C577.502 142.324 595.317 140.401 597.043 126.761L594.389 125.269C591.279 125.395 584.856 126.22 582.764 128.47Z"/><path fill="#FDB874" transform="scale(1.00016 0.999629)" d="M521.105 562.506C489.417 532.141 458.142 501.747 424.579 473.424C424.543 478.403 424.504 483.383 424.465 488.364C424.265 514.047 424.064 539.75 424.297 565.419C426.959 565.418 431.141 565.449 436.226 565.486C457.158 565.641 493.411 565.908 502.163 564.527L502.247 564.526C504.926 564.475 512.981 564.322 514.778 565.53C533.857 578.359 553.227 598.328 568.585 615.296C576.591 624.139 575.524 630.453 584.676 635.246C588.242 634.672 589.362 634.761 590.194 634.314C590.973 633.895 591.501 633.008 593.544 630.673C593.328 629.142 593.114 627.613 592.898 626.083C571.678 609.723 538.854 579.284 521.105 562.506Z"/><path fill="#FDB874" transform="scale(1.00016 0.999629)" d="M254.876 437.563C224.958 437.292 196.135 437.03 166.022 438.333L162.474 440.803C160.38 459.171 220.089 497.835 248.742 516.388C253.249 519.307 256.988 521.728 259.596 523.494L261.944 521.795C263.807 508.903 263.469 469.782 263.279 447.815C263.244 443.74 263.214 440.254 263.204 437.637C260.417 437.613 257.642 437.588 254.876 437.563Z"/><path fill="#FDB874" transform="scale(1.00016 0.999629)" d="M1844.38 562.419C1845.3 544.779 1848.43 485.297 1842.09 478.7L1742.18 566.067C1726.78 579.692 1711.65 593.683 1696.55 607.652C1687.38 616.144 1679.31 618.631 1669.19 625.223C1667.53 631.07 1669.91 633.755 1673.68 638.003C1673.98 638.338 1674.28 638.683 1674.59 639.039C1682.88 635.03 1691.55 621.078 1699.06 613.175C1715.44 595.971 1732.34 581.392 1750.54 566.229C1781.89 565.87 1812.85 565.539 1844.2 565.872C1844.24 565.039 1844.3 563.871 1844.38 562.419Z"/><path fill="#FDB874" transform="scale(1.00016 0.999629)" d="M621.854 593.359Q616.989 593.359 614.392 590.01Q611.808 586.662 611.808 580.531Q611.808 574.401 614.695 570.894Q617.582 567.387 622.777 567.387Q625.637 567.387 629.197 569.273L629.302 567.704L632.058 567.704L632.058 587.15Q632.875 593.57 632.875 594.598Q632.875 599.357 629.685 601.757Q626.494 604.156 622.197 604.156Q617.912 604.156 612.454 601.994L613.429 599.305Q618.769 601.348 621.986 601.348Q625.202 601.348 627.602 599.674Q630.001 598 630.001 594.651L629.527 590.393Q625.255 593.359 621.854 593.359ZM622.882 570.09Q619.046 570.09 616.884 572.924Q614.721 575.759 614.721 580.492Q614.721 585.211 616.607 587.94Q618.505 590.656 621.906 590.656Q625.308 590.656 629.197 587.413L629.197 572.305Q625.69 570.09 622.882 570.09ZM639.559 580.558Q639.559 574.348 642.13 570.868Q644.701 567.387 649.605 567.387Q654.523 567.387 656.922 570.63Q659.335 573.861 659.335 579.266L659.163 581.968L642.644 581.968Q642.908 586.016 644.793 588.534Q646.692 591.039 650.014 591.039Q653.336 591.039 657.819 589.47L658.623 592.172Q654.259 593.847 650.423 593.847Q645.123 593.847 642.341 590.314Q639.559 586.767 639.559 580.558ZM649.829 570.143Q643.026 570.143 642.644 579.266L656.25 579.266Q656.25 570.143 649.829 570.143ZM669.802 567.704L669.908 569.866Q675.155 567.387 678.609 567.387Q682.063 567.387 684.028 569.76Q686.005 572.133 686.005 576.247L686.005 593.359L683.144 593.359L683.144 576.247Q683.144 573.597 681.852 571.87Q680.547 570.195 677.95 570.195Q675.366 570.195 669.908 572.568L669.908 593.359L667.047 593.359L667.047 567.704L669.802 567.704ZM693.559 580.558Q693.559 574.348 696.13 570.868Q698.701 567.387 703.605 567.387Q708.523 567.387 710.922 570.63Q713.335 573.861 713.335 579.266L713.163 581.968L696.644 581.968Q696.908 586.016 698.793 588.534Q700.692 591.039 704.014 591.039Q707.336 591.039 711.818 589.47L712.623 592.172Q708.259 593.847 704.422 593.847Q699.123 593.847 696.341 590.314Q693.559 586.767 693.559 580.558ZM703.829 570.143Q697.026 570.143 696.644 579.266L710.25 579.266Q710.25 570.143 703.829 570.143ZM721.324 593.359L721.324 590.656L727.481 590.656L727.481 570.406L721.324 570.406L721.324 567.704L730.341 567.704L730.447 570.841Q732.174 569.76 735.298 568.679Q738.436 567.598 740.809 567.387L741.402 567.387L741.402 570.565L740.809 570.565Q738.594 570.736 735.325 571.659Q732.068 572.568 730.447 573.544L730.447 590.656L739.082 590.656L739.082 593.359L721.324 593.359ZM748.429 593.359L748.429 590.656L756.313 590.656L756.313 570.406L748.429 570.406L748.429 567.704L759.174 567.704L759.174 590.656L767.058 590.656L767.058 593.359L748.429 593.359ZM755.179 560.097Q755.179 559.016 755.799 558.422Q756.418 557.829 757.5 557.829Q759.714 557.829 759.714 560.202Q759.714 562.575 757.5 562.523Q755.179 562.523 755.179 560.097ZM792.977 568.574L792.331 571.382Q788.982 570.195 786.121 570.195Q782.232 570.195 780.307 572.924Q778.395 575.653 778.395 580.518Q778.395 585.37 780.333 588.204Q782.285 591.039 786.121 591.039Q788.718 591.039 792.594 589.628L793.464 592.331Q789.522 593.847 786.174 593.847Q780.887 593.847 778.079 590.314Q775.271 586.767 775.271 580.452Q775.271 574.137 778.013 570.762Q780.769 567.387 786.121 567.387Q789.522 567.387 792.977 568.574ZM828.559 580.558Q828.559 574.348 831.13 570.868Q833.701 567.387 838.605 567.387Q843.522 567.387 845.922 570.63Q848.334 573.861 848.334 579.266L848.163 581.968L831.644 581.968Q831.908 586.016 833.793 588.534Q835.691 591.039 839.014 591.039Q842.336 591.039 846.818 589.47L847.622 592.172Q843.259 593.847 839.422 593.847Q834.122 593.847 831.341 590.314Q828.559 586.767 828.559 580.558ZM838.829 570.143Q832.026 570.143 831.644 579.266L845.249 579.266Q845.249 570.143 838.829 570.143ZM856.534 567.704L856.693 569.325Q859.395 567.387 860.859 567.387Q864.418 567.387 865.776 569.708Q868.795 567.387 871.063 567.387Q874.57 567.387 875.862 569.549Q877.167 571.711 877.167 576.181L877.167 593.359L874.306 593.359L874.306 576.181Q874.306 573.109 873.647 571.632Q873.001 570.143 871.168 570.143Q869.336 570.143 866.633 571.87Q866.963 573.702 866.963 576.181L866.963 585.146L864.102 585.146L864.102 576.181Q864.102 573.109 863.443 571.646Q862.744 570.143 860.911 570.143Q859.079 570.143 856.693 571.87L856.693 593.359L853.832 593.359L853.832 567.704L856.534 567.704ZM883.099 593.359L883.099 557.5L885.96 557.5L885.96 570.195Q890.021 567.387 893.317 567.387Q898.168 567.387 900.818 570.71Q903.468 574.032 903.468 580.189Q903.468 586.345 900.489 590.103Q897.522 593.847 892.394 593.847Q889.256 593.847 885.907 592.278L885.802 593.359L883.099 593.359ZM900.383 580.241Q900.383 575.482 898.511 572.845Q896.652 570.195 893.145 570.195Q889.638 570.195 885.96 573.267L885.96 589.47Q887.094 590.01 889.072 590.525Q891.049 591.039 892.288 591.039Q896.059 591.039 898.221 588.02Q900.383 584.987 900.383 580.241ZM909.559 580.558Q909.559 574.348 912.13 570.868Q914.7 567.387 919.605 567.387Q924.522 567.387 926.922 570.63Q929.334 573.861 929.334 579.266L929.163 581.968L912.644 581.968Q912.907 586.016 914.793 588.534Q916.691 591.039 920.013 591.039Q923.336 591.039 927.818 589.47L928.622 592.172Q924.259 593.847 920.422 593.847Q915.122 593.847 912.341 590.314Q909.559 586.767 909.559 580.558ZM919.829 570.143Q913.026 570.143 912.644 579.266L926.249 579.266Q926.249 570.143 919.829 570.143ZM956.057 557.5L956.057 588.877L956.598 593.57L953.842 593.9L953.302 591.039Q949.255 593.847 945.853 593.847Q941.041 593.847 938.365 590.287Q935.702 586.714 935.702 580.584Q935.702 574.454 938.668 570.921Q941.634 567.387 946.776 567.387Q949.795 567.387 953.196 568.838L953.196 557.5L956.057 557.5ZM938.774 580.518Q938.774 585.264 940.632 588.151Q942.505 591.039 946.011 591.039Q949.518 591.039 953.196 587.954L953.196 571.764Q952.063 571.224 950.085 570.71Q948.121 570.195 946.882 570.195Q943.045 570.195 940.909 572.977Q938.774 575.759 938.774 580.518ZM983.057 557.5L983.057 588.877L983.598 593.57L980.842 593.9L980.302 591.039Q976.254 593.847 972.853 593.847Q968.041 593.847 965.365 590.287Q962.702 586.714 962.702 580.584Q962.702 574.454 965.668 570.921Q968.634 567.387 973.776 567.387Q976.795 567.387 980.196 568.838L980.196 557.5L983.057 557.5ZM965.774 580.518Q965.774 585.264 967.632 588.151Q969.504 591.039 973.011 591.039Q976.518 591.039 980.196 587.954L980.196 571.764Q979.063 571.224 977.085 570.71Q975.121 570.195 973.881 570.195Q970.045 570.195 967.909 572.977Q965.774 575.759 965.774 580.518ZM990.559 580.558Q990.559 574.348 993.129 570.868Q995.7 567.387 1000.6 567.387Q1005.52 567.387 1007.92 570.63Q1010.33 573.861 1010.33 579.266L1010.16 581.968L993.644 581.968Q993.907 586.016 995.793 588.534Q997.691 591.039 1001.01 591.039Q1004.34 591.039 1008.82 589.47L1009.62 592.172Q1005.26 593.847 1001.42 593.847Q996.122 593.847 993.34 590.314Q990.559 586.767 990.559 580.558ZM1000.83 570.143Q994.026 570.143 993.644 579.266L1007.25 579.266Q1007.25 570.143 1000.83 570.143ZM1037.06 557.5L1037.06 588.877L1037.6 593.57L1034.84 593.9L1034.3 591.039Q1030.25 593.847 1026.85 593.847Q1022.04 593.847 1019.36 590.287Q1016.7 586.714 1016.7 580.584Q1016.7 574.454 1019.67 570.921Q1022.63 567.387 1027.78 567.387Q1030.8 567.387 1034.2 568.838L1034.2 557.5L1037.06 557.5ZM1019.77 580.518Q1019.77 585.264 1021.63 588.151Q1023.5 591.039 1027.01 591.039Q1030.52 591.039 1034.2 587.954L1034.2 571.764Q1033.06 571.224 1031.08 570.71Q1029.12 570.195 1027.88 570.195Q1024.05 570.195 1021.91 572.977Q1019.77 575.759 1019.77 580.518ZM1073.07 593.359L1073.07 590.656L1081.34 590.656L1081.34 560.097L1073.3 560.15L1073.23 557.5L1084.2 557.447L1084.2 590.656L1092.73 590.656L1092.73 593.359L1073.07 593.359ZM1098.14 580.624Q1098.14 567.387 1108.45 567.387Q1118.76 567.387 1118.76 580.624Q1118.76 593.847 1108.45 593.847Q1098.14 593.847 1098.14 580.624ZM1108.45 570.195Q1101.21 570.195 1101.21 580.624Q1101.21 591.039 1108.45 591.039Q1115.68 591.039 1115.68 580.624Q1115.68 570.195 1108.45 570.195ZM1143.98 568.574L1143.33 571.382Q1139.98 570.195 1137.12 570.195Q1133.23 570.195 1131.31 572.924Q1129.4 575.653 1129.4 580.518Q1129.4 585.37 1131.33 588.204Q1133.28 591.039 1137.12 591.039Q1139.72 591.039 1143.59 589.628L1144.46 592.331Q1140.52 593.847 1137.17 593.847Q1131.89 593.847 1129.08 590.314Q1126.27 586.767 1126.27 580.452Q1126.27 574.137 1129.01 570.762Q1131.77 567.387 1137.12 567.387Q1140.52 567.387 1143.98 568.574ZM1160.72 591.039Q1162.71 591.039 1165.06 589.773Q1167.42 588.494 1168.5 587.413L1168.5 580.993Q1164.92 580.729 1161.68 580.729Q1158.45 580.729 1156.83 582.1Q1155.21 583.471 1155.21 585.805Q1155.21 591.039 1160.72 591.039ZM1160.67 593.847Q1156.72 593.847 1154.46 591.83Q1152.19 589.799 1152.19 586.068Q1152.19 582.338 1154.67 580.294Q1157.16 578.185 1161.26 578.185Q1165.36 578.185 1168.5 578.514Q1168.5 573.702 1167.31 571.949Q1166.12 570.195 1162.5 570.195Q1158.89 570.195 1153.97 571.922L1153.15 569.22Q1158.17 567.387 1162.24 567.387Q1167.57 567.387 1169.46 569.76Q1171.36 572.133 1171.36 578.079L1171.36 589.417L1171.79 593.517L1169.04 593.794L1168.5 590.551Q1167.26 591.632 1164.98 592.739Q1162.71 593.847 1160.67 593.847ZM1181.07 593.359L1181.07 590.656L1189.34 590.656L1189.34 560.097L1181.3 560.15L1181.23 557.5L1192.2 557.447L1192.2 590.656L1200.73 590.656L1200.73 593.359L1181.07 593.359ZM1235.07 593.359L1235.07 590.656L1243.34 590.656L1243.34 560.097L1235.3 560.15L1235.23 557.5L1246.2 557.447L1246.2 590.656L1254.73 590.656L1254.73 593.359L1235.07 593.359ZM1262.07 593.359L1262.07 590.656L1270.34 590.656L1270.34 560.097L1262.3 560.15L1262.23 557.5L1273.2 557.447L1273.2 590.656L1281.73 590.656L1281.73 593.359L1262.07 593.359ZM1295.72 591.039Q1297.71 591.039 1300.06 589.773Q1302.42 588.494 1303.5 587.413L1303.5 580.993Q1299.92 580.729 1296.68 580.729Q1293.45 580.729 1291.83 582.1Q1290.21 583.471 1290.21 585.805Q1290.21 591.039 1295.72 591.039ZM1295.67 593.847Q1291.72 593.847 1289.46 591.83Q1287.19 589.799 1287.19 586.068Q1287.19 582.338 1289.67 580.294Q1292.16 578.185 1296.26 578.185Q1300.36 578.185 1303.5 578.514Q1303.5 573.702 1302.31 571.949Q1301.12 570.195 1297.5 570.195Q1293.89 570.195 1288.97 571.922L1288.15 569.22Q1293.17 567.387 1297.24 567.387Q1302.57 567.387 1304.46 569.76Q1306.36 572.133 1306.36 578.079L1306.36 589.417L1306.79 593.517L1304.04 593.794L1303.5 590.551Q1302.26 591.632 1299.98 592.739Q1297.71 593.847 1295.67 593.847ZM1315.53 567.704L1315.69 569.325Q1318.39 567.387 1319.86 567.387Q1323.42 567.387 1324.78 569.708Q1327.79 567.387 1330.06 567.387Q1333.57 567.387 1334.86 569.549Q1336.17 571.711 1336.17 576.181L1336.17 593.359L1333.3 593.359L1333.3 576.181Q1333.3 573.109 1332.65 571.632Q1332 570.143 1330.17 570.143Q1328.33 570.143 1325.63 571.87Q1325.96 573.702 1325.96 576.181L1325.96 585.146L1323.1 585.146L1323.1 576.181Q1323.1 573.109 1322.44 571.646Q1321.74 570.143 1319.91 570.143Q1318.08 570.143 1315.69 571.87L1315.69 593.359L1312.83 593.359L1312.83 567.704L1315.53 567.704ZM1349.72 591.039Q1351.71 591.039 1354.06 589.773Q1356.42 588.494 1357.5 587.413L1357.5 580.993Q1353.92 580.729 1350.68 580.729Q1347.45 580.729 1345.83 582.1Q1344.21 583.471 1344.21 585.805Q1344.21 591.039 1349.72 591.039ZM1349.67 593.847Q1345.72 593.847 1343.46 591.83Q1341.19 589.799 1341.19 586.068Q1341.19 582.338 1343.67 580.294Q1346.16 578.185 1350.26 578.185Q1354.36 578.185 1357.5 578.514Q1357.5 573.702 1356.31 571.949Q1355.12 570.195 1351.5 570.195Q1347.89 570.195 1342.97 571.922L1342.15 569.22Q1347.17 567.387 1351.24 567.387Q1356.57 567.387 1358.46 569.76Q1360.36 572.133 1360.36 578.079L1360.36 589.417L1360.79 593.517L1358.04 593.794L1357.5 590.551Q1356.26 591.632 1353.98 592.739Q1351.71 593.847 1349.67 593.847ZM1396.43 593.359L1396.43 590.656L1404.31 590.656L1404.31 570.406L1396.43 570.406L1396.43 567.704L1407.17 567.704L1407.17 590.656L1415.06 590.656L1415.06 593.359L1396.43 593.359ZM1403.18 560.097Q1403.18 559.016 1403.8 558.422Q1404.42 557.829 1405.5 557.829Q1407.71 557.829 1407.71 560.202Q1407.71 562.575 1405.5 562.523Q1403.18 562.523 1403.18 560.097ZM1425.8 567.704L1425.91 569.866Q1431.15 567.387 1434.61 567.387Q1438.06 567.387 1440.03 569.76Q1442 572.133 1442 576.247L1442 593.359L1439.14 593.359L1439.14 576.247Q1439.14 573.597 1437.85 571.87Q1436.55 570.195 1433.95 570.195Q1431.36 570.195 1425.91 572.568L1425.91 593.359L1423.05 593.359L1423.05 567.704L1425.8 567.704ZM1448.96 571.105L1448.96 568.416L1454.21 568.416L1454.21 561.877L1457.07 561.336L1457.07 568.416L1469.44 568.416L1469.44 571.105L1457.07 571.105L1457.07 583.419Q1457.07 587.532 1458.29 589.338Q1459.5 591.144 1462.64 591.144Q1463.82 591.144 1466.3 590.749Q1468.79 590.34 1469.7 590.01L1470.35 592.66Q1469.33 593.029 1466.6 593.464Q1463.88 593.9 1462.64 593.9Q1457.77 593.9 1455.99 591.342Q1454.21 588.771 1454.21 583.537L1454.21 571.105L1448.96 571.105ZM1476.56 580.558Q1476.56 574.348 1479.13 570.868Q1481.7 567.387 1486.6 567.387Q1491.52 567.387 1493.92 570.63Q1496.33 573.861 1496.33 579.266L1496.16 581.968L1479.64 581.968Q1479.91 586.016 1481.79 588.534Q1483.69 591.039 1487.01 591.039Q1490.33 591.039 1494.82 589.47L1495.62 592.172Q1491.26 593.847 1487.42 593.847Q1482.12 593.847 1479.34 590.314Q1476.56 586.767 1476.56 580.558ZM1486.83 570.143Q1480.03 570.143 1479.64 579.266L1493.25 579.266Q1493.25 570.143 1486.83 570.143ZM1504.32 593.359L1504.32 590.656L1510.48 590.656L1510.48 570.406L1504.32 570.406L1504.32 567.704L1513.34 567.704L1513.45 570.841Q1515.17 569.76 1518.3 568.679Q1521.43 567.598 1523.81 567.387L1524.4 567.387L1524.4 570.565L1523.81 570.565Q1521.59 570.736 1518.32 571.659Q1515.07 572.568 1513.45 573.544L1513.45 590.656L1522.08 590.656L1522.08 593.359L1504.32 593.359ZM1530.68 593.359L1530.68 590.656L1536.66 590.656L1536.66 570.406L1530.89 570.406L1530.89 567.704L1536.66 567.704Q1536.66 557.012 1544.6 557.012Q1547.2 557.012 1551.4 558.264L1550.76 560.954Q1546.6 559.767 1544.72 559.767Q1541.96 559.767 1540.74 561.692Q1539.52 563.604 1539.52 567.704L1550.39 567.704L1550.39 570.406L1539.52 570.406L1539.52 590.656L1550.49 590.656L1550.49 593.359L1530.68 593.359ZM1565.72 591.039Q1567.71 591.039 1570.05 589.773Q1572.42 588.494 1573.5 587.413L1573.5 580.993Q1569.92 580.729 1566.68 580.729Q1563.45 580.729 1561.83 582.1Q1560.21 583.471 1560.21 585.805Q1560.21 591.039 1565.72 591.039ZM1565.67 593.847Q1561.72 593.847 1559.46 591.83Q1557.19 589.799 1557.19 586.068Q1557.19 582.338 1559.67 580.294Q1562.16 578.185 1566.26 578.185Q1570.36 578.185 1573.5 578.514Q1573.5 573.702 1572.31 571.949Q1571.12 570.195 1567.5 570.195Q1563.89 570.195 1558.97 571.922L1558.15 569.22Q1563.17 567.387 1567.23 567.387Q1572.57 567.387 1574.46 569.76Q1576.36 572.133 1576.36 578.079L1576.36 589.417L1576.79 593.517L1574.04 593.794L1573.5 590.551Q1572.26 591.632 1569.98 592.739Q1567.71 593.847 1565.67 593.847ZM1602.98 568.574L1602.33 571.382Q1598.98 570.195 1596.12 570.195Q1592.23 570.195 1590.3 572.924Q1588.39 575.653 1588.39 580.518Q1588.39 585.37 1590.33 588.204Q1592.28 591.039 1596.12 591.039Q1598.72 591.039 1602.59 589.628L1603.46 592.331Q1599.52 593.847 1596.17 593.847Q1590.89 593.847 1588.08 590.314Q1585.27 586.767 1585.27 580.452Q1585.27 574.137 1588.01 570.762Q1590.77 567.387 1596.12 567.387Q1599.52 567.387 1602.98 568.574ZM1611.56 580.558Q1611.56 574.348 1614.13 570.868Q1616.7 567.387 1621.61 567.387Q1626.52 567.387 1628.92 570.63Q1631.34 573.861 1631.34 579.266L1631.16 581.968L1614.65 581.968Q1614.91 586.016 1616.79 588.534Q1618.69 591.039 1622.01 591.039Q1625.34 591.039 1629.82 589.47L1630.62 592.172Q1626.26 593.847 1622.42 593.847Q1617.12 593.847 1614.34 590.314Q1611.56 586.767 1611.56 580.558ZM1621.83 570.143Q1615.03 570.143 1614.65 579.266L1628.25 579.266Q1628.25 570.143 1621.83 570.143Z"/></svg>