<?xml version="1.0" encoding="utf-8" ?><svg xmlns="http://www.w3.org/2000/svg" xmlns:xlink="http://www.w3.org/1999/xlink" width="2242" height="848" viewBox="0 0 2242 848"><path fill="#FDB874" transform="scale(1.00016 0.999516)" d="M1703.1 155.027C1718 167.75 1732.61 180.958 1747.29 193.943C1779.44 225.727 1813.79 252.873 1844.31 286.477C1846.46 271.019 1844.16 257.999 1842.22 246.976C1840.44 236.889 1838.95 228.475 1841.44 221.396C1849.64 213.367 1861.89 216.335 1863.28 228.346C1860.97 235.757 1859.17 237.19 1853.68 242.325L1852.03 243.863C1851.42 258.527 1851.47 273.628 1851.52 288.489C1851.53 291.832 1851.54 295.163 1851.54 298.474L1918.44 298.474C1924.03 291.221 1927.08 287.205 1936.56 286.845C1946.38 291.491 1947.47 298.162 1942.32 307.76C1942.12 307.914 1941.88 308.093 1941.62 308.288C1939.61 309.808 1936.28 312.317 1934.55 311.558C1913.91 302.479 1891.43 303.275 1868.36 304.091C1862.83 304.286 1857.27 304.483 1851.69 304.545C1851.02 316.425 1851.06 328.576 1851.09 340.583C1851.1 343.312 1851.11 346.035 1851.11 348.744L1919.34 347.92C1926.06 340.992 1927.21 340.196 1935.55 339.056C1945.31 343.627 1946.12 349.265 1942.34 359.295C1939.67 361.813 1938.98 362.771 1938.04 363.201C1937.09 363.641 1935.89 363.531 1932.05 363.973C1925.27 361.956 1923.36 359.002 1918.42 353.894C1895.28 353.421 1874.4 353.237 1851.2 353.911C1850.71 368.053 1850.85 381.767 1850.99 395.86L1851.02 398.377C1897.27 399.329 1935.21 400.054 1981.37 397.421L1994.52 382.008C1996.11 328.201 1996.32 277.273 1996.32 223.426C1981.14 213.262 1966.03 202.146 1951.17 191.456C1910.15 189.187 1862.4 189.701 1817.68 190.181C1802.74 190.342 1788.14 190.499 1774.24 190.547L1749.92 190.593C1727.4 169.771 1705.15 149.353 1684.42 126.761C1683.12 125.339 1678.18 124.233 1676.04 124.36L1674.61 127.309C1681.22 142.247 1691.61 145.212 1703.1 155.027Z"/><path fill="#FDB874" transform="scale(1.00016 0.999516)" d="M650.533 256.548C615.121 255.548 572.311 254.339 547.446 256.231C466.209 258.83 463.636 302.079 466.84 371.807C467.147 378.486 467 386.395 466.842 394.955C466.266 426.089 465.53 465.837 485.868 486.341C514.036 508.117 566.341 506.28 607.097 504.849C615.548 504.553 623.503 504.273 630.642 504.226C644.613 504.072 669.403 497.36 676.68 487.113C689.62 468.899 688.631 421.215 687.951 388.442C687.788 380.536 687.642 373.498 687.714 367.951L569.22 368.225C569.209 369.344 569.161 370.849 569.104 372.601C568.82 381.422 568.336 396.495 571.43 400.012L649.618 400.035C649.658 403.232 649.719 406.424 649.781 409.613C650.137 428.183 650.491 446.607 646.651 464.836C625.053 472.07 517.625 486.74 511.018 455.812C502.682 416.798 500.702 338.162 513.604 300.891C519.872 282.788 632.234 286.803 673.626 288.282C678.942 288.472 683.087 288.62 685.687 288.674L685.651 257.407C675.835 257.263 663.695 256.92 650.533 256.548Z"/><path fill="#FDB874" transform="scale(1.00016 0.999516)" d="M938.565 256.978C894.761 256.677 850.506 256.372 807.822 257.074L807.858 505.322L1002.85 505.322L1002.81 473.575L846.519 473.575L846.575 396.823L872.811 396.823L982.225 396.583L982.168 365.295L846.237 365.295L846.463 288.706C884.983 287.299 926.594 287.799 966.718 288.281C978.825 288.426 990.797 288.57 1002.51 288.659L1002.28 257.3C981.308 257.272 959.991 257.125 938.565 256.978Z"/><path fill="#FDB874" transform="scale(1.00016 0.999516)" d="M416.362 408.49L270.436 408.49L270.436 531.254C286.324 542.519 302.468 554.254 318.497 565.239L339.912 565.419L339.859 504.69L338.124 503.118C314.457 481.517 342.641 466.365 355.723 481.883C357.608 489.607 354.611 495.756 351.596 501.942C348.599 508.092 345.584 514.279 347.33 522.088C347.337 523.026 347.345 523.968 347.352 524.908L347.409 565.419L417.053 565.419L416.362 408.49Z"/><path fill="#FDB874" transform="scale(1.00016 0.999516)" d="M1932.9 454.313C1905.33 454.099 1878.07 453.888 1850.1 454.802C1851.28 476.318 1851.67 494.697 1851.58 516.256C1854.85 516.352 1858.12 516.454 1861.39 516.556C1885.59 517.311 1909.69 518.062 1933.91 516.493C1934.79 515.86 1935.65 515.22 1936.5 514.588C1945.39 507.992 1953.21 502.191 1962.14 512.863C1964.3 523.723 1961.52 529.168 1950.93 531.647C1917.54 520.446 1901.55 521.126 1873.61 522.314C1867.04 522.593 1859.82 522.901 1851.56 523.089L1851.35 566.23C1882.96 564.683 1922.79 564.735 1954.72 565.584L1967.17 557.178C2015.47 524.343 2061.43 488.336 2109.15 454.836C2076.6 454.039 2044.21 454.203 2011.78 454.367C1996.29 454.445 1980.79 454.524 1965.26 454.498C1954.38 454.48 1943.62 454.396 1932.9 454.313Z"/><path fill="#FDB874" transform="scale(1.00016 0.999516)" d="M220.676 306.277C200.754 306.479 180.491 306.684 161.436 305.956C163.499 345.522 162.763 382.422 161.981 421.573C161.924 424.436 161.866 427.312 161.81 430.202L262.879 430.202L262.828 363.37L216.451 364.058C210.719 368.37 208.875 370.347 201.536 370.984C194.142 368.449 196.626 370.306 192.11 364.065C191.007 357.502 191.107 356.741 193.952 350.728C204.98 342.027 210.021 347.476 217.804 355.889C218.134 356.246 218.469 356.608 218.809 356.974L252.124 356.702C259.976 354.998 269.137 348.493 272.506 348.188C286.842 346.898 302.47 347.083 317.235 347.258C319.359 347.283 321.465 347.308 323.547 347.328L415.885 348.367L415.827 306.431L248.569 306.093C239.457 306.087 230.105 306.182 220.676 306.277Z"/><path fill="#FDB874" transform="scale(1.00016 0.999516)" d="M416.037 191.259L314.438 191.361C266.81 222.748 212.436 261.863 168.42 298.442C221.851 299.348 276.337 299.094 330.535 298.841C357.105 298.717 383.606 298.593 409.879 298.607L414.06 297.24C418.272 286.058 417.256 262.145 416.595 246.583C416.496 244.265 416.406 242.133 416.341 240.255L337.05 240.255C336.599 240.759 336.16 241.254 335.731 241.738C328.256 250.165 323.809 255.179 312.733 246.927C309.42 240.741 309.328 239.923 309.955 232.919C313.651 226.408 311.499 228.44 317.967 225.075C326.64 224.594 329.654 227.013 335.972 232.715L416.077 233.182L416.037 191.259Z"/><path fill="#FDB874" transform="scale(1.00016 0.999516)" d="M1454.9 257.159L1415.9 256.979L1416.59 505.497C1427.38 505.575 1438.23 505.675 1449.11 505.775C1499.25 506.237 1550.18 506.705 1599.76 505.082L1599.94 473.582L1454.55 473.582C1455.9 408.934 1455.47 343.052 1455.04 278.079C1454.99 271.094 1454.95 264.12 1454.9 257.159Z"/><path fill="#FDB874" transform="scale(1.00016 0.999516)" d="M1154.85 257.157L1116.5 257.157L1116.86 505.191C1130.84 505.105 1144.87 504.992 1158.91 504.88C1206.91 504.495 1255.14 504.109 1302.9 504.755C1302.95 502.594 1303.01 500.407 1303.07 498.206C1303.29 490.002 1303.52 481.597 1303.35 473.582L1154.66 473.582L1154.85 257.157Z"/><path fill="#FDB874" transform="scale(1.00016 0.999516)" d="M1993.69 410.884C1992.39 411.23 1984.32 405.376 1982.68 404.09L1850.66 403.915L1850.81 448.817L2023.74 448.965C2026.03 448.966 2029.43 448.993 2033.58 449.026C2055.22 449.196 2097 449.526 2105.32 447.188L2106.86 444.891L2107.12 404.386C2100.94 404.27 2094.89 404.099 2088.94 403.931C2056.31 403.009 2026.6 402.169 1993.69 410.884Z"/><path fill="#FDB874" transform="scale(1.00016 0.999516)" d="M1759.72 256.862L1722.24 256.862L1722.28 505.645L1759.59 505.722L1759.72 256.862Z"/><path fill="#FDB874" transform="scale(1.00016 0.999516)" d="M2107.08 298.943C2071.65 276.655 2037.65 249.422 2002.97 228.626C2000.97 258.525 2001.38 292.022 2001.75 322.686C2001.78 325.278 2001.81 327.85 2001.84 330.398L2107.12 330.543L2107.08 298.943Z"/><path fill="#FDB874" transform="scale(1.00016 0.999516)" d="M416.009 355.124L270.47 355.113L270.489 400.317L416.219 400.255L416.009 355.124Z"/><path fill="#FDB874" transform="scale(1.00016 0.999516)" d="M2107.14 337.125L2002.01 337.125C2001.95 338.24 2001.88 339.388 2001.81 340.563C2000.35 365.184 1998.17 401.901 2032.19 400.944C2041.41 400.684 2050.41 400.218 2059.36 399.754C2074.97 398.945 2090.45 398.143 2106.76 398.454C2107.14 377.949 2107.16 357.631 2107.14 337.125Z"/><path fill="#FDB874" transform="scale(1.00016 0.999516)" d="M582.764 128.47C562.851 149.892 541.482 169.921 520.194 189.95C516.484 189.94 511.574 189.894 505.915 189.841C480.079 189.601 438.63 189.216 424.457 191.336C422.609 226.748 422.607 249.519 425.121 284.817C456.749 254.952 491.282 225.058 521.588 194.596C538.582 181.734 551.901 164.708 567.965 150.662C577.502 142.324 595.317 140.401 597.043 126.761L594.389 125.269C591.279 125.395 584.856 126.22 582.764 128.47Z"/><path fill="#FDB874" transform="scale(1.00016 0.999516)" d="M521.105 562.506C489.417 532.141 458.142 501.747 424.579 473.424C424.543 478.403 424.504 483.383 424.465 488.364C424.265 514.047 424.064 539.75 424.297 565.419C426.959 565.418 431.141 565.449 436.226 565.486C457.158 565.641 493.411 565.908 502.163 564.527L502.247 564.526C504.926 564.475 512.981 564.322 514.778 565.53C533.857 578.359 553.227 598.328 568.585 615.296C576.591 624.139 575.524 630.453 584.676 635.246C588.242 634.672 589.362 634.761 590.194 634.314C590.973 633.895 591.501 633.008 593.544 630.673C593.328 629.142 593.114 627.613 592.898 626.083C571.678 609.723 538.854 579.284 521.105 562.506Z"/><path fill="#FDB874" transform="scale(1.00016 0.999516)" d="M254.876 437.563C224.958 437.292 196.135 437.03 166.022 438.333L162.474 440.803C160.38 459.171 220.089 497.835 248.742 516.388C253.249 519.307 256.988 521.728 259.596 523.494L261.944 521.795C263.807 508.903 263.469 469.782 263.279 447.815C263.244 443.74 263.214 440.254 263.204 437.637C260.417 437.613 257.642 437.588 254.876 437.563Z"/><path fill="#FDB874" transform="scale(1.00016 0.999516)" d="M1844.38 562.419C1845.3 544.779 1848.43 485.297 1842.09 478.7L1742.18 566.067C1726.78 579.692 1711.65 593.683 1696.55 607.652C1687.38 616.144 1679.31 618.631 1669.19 625.223C1667.53 631.07 1669.91 633.755 1673.68 638.003C1673.98 638.338 1674.28 638.683 1674.59 639.039C1682.88 635.03 1691.55 621.078 1699.06 613.175C1715.44 595.971 1732.34 581.392 1750.54 566.229C1781.89 565.87 1812.85 565.539 1844.2 565.872C1844.24 565.039 1844.3 563.871 1844.38 562.419Z"/><path fill="#FDB874" transform="scale(1.00016 0.999516)" d="M306.616 825.59Q298.598 825.59 294.318 820.071Q290.059 814.552 290.059 804.448Q290.059 794.344 294.818 788.565Q299.576 782.785 308.137 782.785Q312.852 782.785 318.719 785.892L318.893 783.306L323.434 783.306L323.434 815.356Q324.781 825.938 324.781 827.633Q324.781 835.477 319.523 839.431Q314.265 843.386 307.181 843.386Q300.119 843.386 291.124 839.822L292.732 835.39Q301.532 838.758 306.833 838.758Q312.135 838.758 316.09 835.998Q320.044 833.238 320.044 827.719L319.262 820.701Q312.222 825.59 306.616 825.59ZM308.311 787.239Q301.988 787.239 298.425 791.911Q294.861 796.582 294.861 804.383Q294.861 812.162 297.968 816.66Q301.097 821.136 306.703 821.136Q312.309 821.136 318.719 815.79L318.719 790.89Q312.939 787.239 308.311 787.239ZM335.798 804.492Q335.798 794.258 340.035 788.521Q344.272 782.785 352.355 782.785Q360.46 782.785 364.414 788.13Q368.39 793.454 368.39 802.362L368.108 806.817L340.882 806.817Q341.317 813.487 344.424 817.637Q347.553 821.766 353.028 821.766Q358.504 821.766 365.892 819.18L367.217 823.634Q360.025 826.394 353.702 826.394Q344.967 826.394 340.382 820.571Q335.798 814.726 335.798 804.492ZM352.724 787.326Q341.512 787.326 340.882 802.362L363.306 802.362Q363.306 787.326 352.724 787.326ZM385.643 783.306L385.817 786.87Q394.465 782.785 400.157 782.785Q405.85 782.785 409.088 786.696Q412.347 790.607 412.347 797.386L412.347 825.59L407.632 825.59L407.632 797.386Q407.632 793.019 405.503 790.173Q403.352 787.413 399.071 787.413Q394.812 787.413 385.817 791.324L385.817 825.59L381.102 825.59L381.102 783.306L385.643 783.306ZM424.798 804.492Q424.798 794.258 429.035 788.521Q433.272 782.785 441.355 782.785Q449.459 782.785 453.414 788.13Q457.39 793.454 457.39 802.362L457.108 806.817L429.882 806.817Q430.317 813.487 433.424 817.637Q436.553 821.766 442.028 821.766Q447.504 821.766 454.892 819.18L456.217 823.634Q449.025 826.394 442.702 826.394Q433.967 826.394 429.382 820.571Q424.798 814.726 424.798 804.492ZM441.724 787.326Q430.512 787.326 429.882 802.362L452.306 802.362Q452.306 787.326 441.724 787.326ZM470.558 825.59L470.558 821.136L480.705 821.136L480.705 787.761L470.558 787.761L470.558 783.306L485.42 783.306L485.594 788.478Q488.44 786.696 493.59 784.914Q498.761 783.133 502.673 782.785L503.65 782.785L503.65 788.021L502.673 788.021Q499.022 788.304 493.634 789.825Q488.267 791.324 485.594 792.932L485.594 821.136L499.826 821.136L499.826 825.59L470.558 825.59ZM515.232 825.59L515.232 821.136L528.225 821.136L528.225 787.761L515.232 787.761L515.232 783.306L532.94 783.306L532.94 821.136L545.934 821.136L545.934 825.59L515.232 825.59ZM526.357 770.769Q526.357 768.987 527.378 768.009Q528.399 767.032 530.181 767.032Q533.831 767.032 533.831 770.943Q533.831 774.854 530.181 774.767Q526.357 774.767 526.357 770.769ZM588.652 784.74L587.588 789.369Q582.069 787.413 577.354 787.413Q570.944 787.413 567.771 791.911Q564.621 796.409 564.621 804.426Q564.621 812.423 567.815 817.094Q571.031 821.766 577.354 821.766Q581.634 821.766 588.022 819.441L589.456 823.895Q582.959 826.394 577.44 826.394Q568.727 826.394 564.099 820.571Q559.471 814.726 559.471 804.318Q559.471 793.91 563.99 788.347Q568.532 782.785 577.354 782.785Q582.959 782.785 588.652 784.74ZM647.298 804.492Q647.298 794.258 651.535 788.521Q655.772 782.785 663.855 782.785Q671.959 782.785 675.914 788.13Q679.89 793.454 679.89 802.362L679.608 806.817L652.382 806.817Q652.817 813.487 655.924 817.637Q659.053 821.766 664.528 821.766Q670.004 821.766 677.392 819.18L678.717 823.634Q671.525 826.394 665.202 826.394Q656.467 826.394 651.882 820.571Q647.298 814.726 647.298 804.492ZM664.224 787.326Q653.012 787.326 652.382 802.362L674.806 802.362Q674.806 787.326 664.224 787.326ZM693.406 783.306L693.666 785.979Q698.121 782.785 700.532 782.785Q706.399 782.785 708.637 786.609Q713.613 782.785 717.35 782.785Q723.13 782.785 725.26 786.348Q727.411 789.912 727.411 797.278L727.411 825.59L722.696 825.59L722.696 797.278Q722.696 792.215 721.609 789.781Q720.544 787.326 717.524 787.326Q714.504 787.326 710.05 790.173Q710.593 793.193 710.593 797.278L710.593 812.053L705.878 812.053L705.878 797.278Q705.878 792.215 704.791 789.803Q703.64 787.326 700.619 787.326Q697.599 787.326 693.666 790.173L693.666 825.59L688.951 825.59L688.951 783.306L693.406 783.306ZM737.188 825.59L737.188 766.488L741.904 766.488L741.904 787.413Q748.596 782.785 754.028 782.785Q762.024 782.785 766.392 788.26Q770.759 793.736 770.759 803.883Q770.759 814.03 765.848 820.223Q760.959 826.394 752.507 826.394Q747.336 826.394 741.817 823.808L741.643 825.59L737.188 825.59ZM765.675 803.97Q765.675 796.126 762.589 791.78Q759.525 787.413 753.746 787.413Q747.966 787.413 741.904 792.476L741.904 819.18Q743.772 820.071 747.032 820.918Q750.291 821.766 752.333 821.766Q758.548 821.766 762.111 816.79Q765.675 811.792 765.675 803.97ZM780.798 804.492Q780.798 794.258 785.035 788.521Q789.272 782.785 797.355 782.785Q805.459 782.785 809.414 788.13Q813.39 793.454 813.39 802.362L813.108 806.817L785.882 806.817Q786.317 813.487 789.424 817.637Q792.553 821.766 798.028 821.766Q803.504 821.766 810.892 819.18L812.217 823.634Q805.025 826.394 798.702 826.394Q789.967 826.394 785.382 820.571Q780.798 814.726 780.798 804.492ZM797.724 787.326Q786.512 787.326 785.882 802.362L808.306 802.362Q808.306 787.326 797.724 787.326ZM857.434 766.488L857.434 818.202L858.325 825.938L853.784 826.481L852.893 821.766Q846.222 826.394 840.616 826.394Q832.685 826.394 828.274 820.527Q823.885 814.639 823.885 804.535Q823.885 794.431 828.774 788.608Q833.663 782.785 842.137 782.785Q847.113 782.785 852.719 785.175L852.719 766.488L857.434 766.488ZM828.948 804.426Q828.948 812.249 832.012 817.007Q835.097 821.766 840.877 821.766Q846.657 821.766 852.719 816.681L852.719 789.999Q850.85 789.108 847.591 788.26Q844.354 787.413 842.311 787.413Q835.988 787.413 832.468 791.998Q828.948 796.582 828.948 804.426ZM901.934 766.488L901.934 818.202L902.825 825.938L898.284 826.481L897.393 821.766Q890.722 826.394 885.116 826.394Q877.185 826.394 872.774 820.527Q868.385 814.639 868.385 804.535Q868.385 794.431 873.274 788.608Q878.163 782.785 886.637 782.785Q891.613 782.785 897.219 785.175L897.219 766.488L901.934 766.488ZM873.448 804.426Q873.448 812.249 876.512 817.007Q879.597 821.766 885.377 821.766Q891.157 821.766 897.219 816.681L897.219 789.999Q895.35 789.108 892.091 788.26Q888.854 787.413 886.811 787.413Q880.488 787.413 876.968 791.998Q873.448 796.582 873.448 804.426ZM914.298 804.492Q914.298 794.258 918.535 788.521Q922.772 782.785 930.855 782.785Q938.959 782.785 942.914 788.13Q946.89 793.454 946.89 802.362L946.608 806.817L919.382 806.817Q919.817 813.487 922.924 817.637Q926.053 821.766 931.528 821.766Q937.004 821.766 944.392 819.18L945.717 823.634Q938.525 826.394 932.202 826.394Q923.467 826.394 918.882 820.571Q914.298 814.726 914.298 804.492ZM931.224 787.326Q920.012 787.326 919.382 802.362L941.806 802.362Q941.806 787.326 931.224 787.326ZM990.934 766.488L990.934 818.202L991.825 825.938L987.284 826.481L986.393 821.766Q979.722 826.394 974.116 826.394Q966.185 826.394 961.774 820.527Q957.385 814.639 957.385 804.535Q957.385 794.431 962.274 788.608Q967.163 782.785 975.637 782.785Q980.613 782.785 986.219 785.175L986.219 766.488L990.934 766.488ZM962.448 804.426Q962.448 812.249 965.512 817.007Q968.597 821.766 974.377 821.766Q980.157 821.766 986.219 816.681L986.219 789.999Q984.35 789.108 981.091 788.26Q977.854 787.413 975.811 787.413Q969.488 787.413 965.968 791.998Q962.448 796.582 962.448 804.426ZM1050.3 825.59L1050.3 821.136L1063.92 821.136L1063.92 770.769L1050.67 770.856L1050.56 766.488L1068.64 766.402L1068.64 821.136L1082.69 821.136L1082.69 825.59L1050.3 825.59ZM1091.6 804.6Q1091.6 782.785 1108.59 782.785Q1125.59 782.785 1125.59 804.6Q1125.59 826.394 1108.59 826.394Q1091.6 826.394 1091.6 804.6ZM1108.59 787.413Q1096.67 787.413 1096.67 804.6Q1096.67 821.766 1108.59 821.766Q1120.52 821.766 1120.52 804.6Q1120.52 787.413 1108.59 787.413ZM1167.15 784.74L1166.09 789.369Q1160.57 787.413 1155.85 787.413Q1149.44 787.413 1146.27 791.911Q1143.12 796.409 1143.12 804.426Q1143.12 812.423 1146.31 817.094Q1149.53 821.766 1155.85 821.766Q1160.13 821.766 1166.52 819.441L1167.96 823.895Q1161.46 826.394 1155.94 826.394Q1147.23 826.394 1142.6 820.571Q1137.97 814.726 1137.97 804.318Q1137.97 793.91 1142.49 788.347Q1147.03 782.785 1155.85 782.785Q1161.46 782.785 1167.15 784.74ZM1194.75 821.766Q1198.03 821.766 1201.9 819.68Q1205.79 817.572 1207.57 815.79L1207.57 805.209Q1201.68 804.774 1196.33 804.774Q1191.01 804.774 1188.34 807.034Q1185.67 809.294 1185.67 813.14Q1185.67 821.766 1194.75 821.766ZM1194.66 826.394Q1188.16 826.394 1184.43 823.07Q1180.69 819.723 1180.69 813.574Q1180.69 807.425 1184.77 804.057Q1188.88 800.581 1195.64 800.581Q1202.4 800.581 1207.57 801.124Q1207.57 793.193 1205.61 790.303Q1203.66 787.413 1197.68 787.413Q1191.73 787.413 1183.62 790.259L1182.28 785.805Q1190.55 782.785 1197.25 782.785Q1206.05 782.785 1209.15 786.696Q1212.28 790.607 1212.28 800.407L1212.28 819.093L1213 825.851L1208.46 826.307L1207.57 820.962Q1205.53 822.744 1201.77 824.569Q1198.03 826.394 1194.66 826.394ZM1228.3 825.59L1228.3 821.136L1241.92 821.136L1241.92 770.769L1228.67 770.856L1228.56 766.488L1246.64 766.402L1246.64 821.136L1260.69 821.136L1260.69 825.59L1228.3 825.59ZM1317.29 825.59L1317.29 821.136L1330.92 821.136L1330.92 770.769L1317.66 770.856L1317.55 766.488L1335.63 766.402L1335.63 821.136L1349.69 821.136L1349.69 825.59L1317.29 825.59ZM1361.79 825.59L1361.79 821.136L1375.42 821.136L1375.42 770.769L1362.16 770.856L1362.05 766.488L1380.13 766.402L1380.13 821.136L1394.19 821.136L1394.19 825.59L1361.79 825.59ZM1417.24 821.766Q1420.52 821.766 1424.39 819.68Q1428.28 817.572 1430.06 815.79L1430.06 805.209Q1424.17 804.774 1418.83 804.774Q1413.51 804.774 1410.83 807.034Q1408.16 809.294 1408.16 813.14Q1408.16 821.766 1417.24 821.766ZM1417.16 826.394Q1410.66 826.394 1406.92 823.07Q1403.19 819.723 1403.19 813.574Q1403.19 807.425 1407.27 804.057Q1411.38 800.581 1418.13 800.581Q1424.89 800.581 1430.06 801.124Q1430.06 793.193 1428.11 790.303Q1426.15 787.413 1420.18 787.413Q1414.22 787.413 1406.12 790.259L1404.77 785.805Q1413.05 782.785 1419.74 782.785Q1428.54 782.785 1431.65 786.696Q1434.78 790.607 1434.78 800.407L1434.78 819.093L1435.5 825.851L1430.95 826.307L1430.06 820.962Q1428.02 822.744 1424.26 824.569Q1420.52 826.394 1417.16 826.394ZM1449.9 783.306L1450.16 785.979Q1454.62 782.785 1457.03 782.785Q1462.9 782.785 1465.13 786.609Q1470.11 782.785 1473.85 782.785Q1479.63 782.785 1481.76 786.348Q1483.91 789.912 1483.91 797.278L1483.91 825.59L1479.19 825.59L1479.19 797.278Q1479.19 792.215 1478.11 789.781Q1477.04 787.326 1474.02 787.326Q1471 787.326 1466.55 790.173Q1467.09 793.193 1467.09 797.278L1467.09 812.053L1462.37 812.053L1462.37 797.278Q1462.37 792.215 1461.29 789.803Q1460.14 787.326 1457.12 787.326Q1454.1 787.326 1450.16 790.173L1450.16 825.59L1445.45 825.59L1445.45 783.306L1449.9 783.306ZM1506.24 821.766Q1509.52 821.766 1513.39 819.68Q1517.28 817.572 1519.06 815.79L1519.06 805.209Q1513.17 804.774 1507.83 804.774Q1502.51 804.774 1499.83 807.034Q1497.16 809.294 1497.16 813.14Q1497.16 821.766 1506.24 821.766ZM1506.16 826.394Q1499.66 826.394 1495.92 823.07Q1492.19 819.723 1492.19 813.574Q1492.19 807.425 1496.27 804.057Q1500.38 800.581 1507.13 800.581Q1513.89 800.581 1519.06 801.124Q1519.06 793.193 1517.11 790.303Q1515.15 787.413 1509.18 787.413Q1503.22 787.413 1495.12 790.259L1493.77 785.805Q1502.05 782.785 1508.74 782.785Q1517.54 782.785 1520.65 786.696Q1523.78 790.607 1523.78 800.407L1523.78 819.093L1524.5 825.851L1519.95 826.307L1519.06 820.962Q1517.02 822.744 1513.26 824.569Q1509.52 826.394 1506.16 826.394ZM1583.23 825.59L1583.23 821.136L1596.22 821.136L1596.22 787.761L1583.23 787.761L1583.23 783.306L1600.94 783.306L1600.94 821.136L1613.93 821.136L1613.93 825.59L1583.23 825.59ZM1594.35 770.769Q1594.35 768.987 1595.37 768.009Q1596.4 767.032 1598.18 767.032Q1601.83 767.032 1601.83 770.943Q1601.83 774.854 1598.18 774.767Q1594.35 774.767 1594.35 770.769ZM1631.64 783.306L1631.81 786.87Q1640.46 782.785 1646.15 782.785Q1651.85 782.785 1655.08 786.696Q1658.34 790.607 1658.34 797.386L1658.34 825.59L1653.63 825.59L1653.63 797.386Q1653.63 793.019 1651.5 790.173Q1649.35 787.413 1645.07 787.413Q1640.81 787.413 1631.81 791.324L1631.81 825.59L1627.1 825.59L1627.1 783.306L1631.64 783.306ZM1669.82 788.912L1669.82 784.48L1678.46 784.48L1678.46 773.702L1683.18 772.811L1683.18 784.48L1703.56 784.48L1703.56 788.912L1683.18 788.912L1683.18 809.207Q1683.18 815.986 1685.18 818.963Q1687.18 821.94 1692.35 821.94Q1694.3 821.94 1698.39 821.288Q1702.5 820.614 1703.99 820.071L1705.06 824.438Q1703.39 825.047 1698.89 825.764Q1694.39 826.481 1692.35 826.481Q1684.33 826.481 1681.4 822.266Q1678.46 818.029 1678.46 809.402L1678.46 788.912L1669.82 788.912ZM1715.29 804.492Q1715.29 794.258 1719.53 788.521Q1723.77 782.785 1731.85 782.785Q1739.96 782.785 1743.91 788.13Q1747.89 793.454 1747.89 802.362L1747.6 806.817L1720.38 806.817Q1720.81 813.487 1723.92 817.637Q1727.05 821.766 1732.52 821.766Q1738 821.766 1745.39 819.18L1746.71 823.634Q1739.52 826.394 1733.2 826.394Q1724.46 826.394 1719.88 820.571Q1715.29 814.726 1715.29 804.492ZM1732.22 787.326Q1721.01 787.326 1720.38 802.362L1742.8 802.362Q1742.8 787.326 1732.22 787.326ZM1761.05 825.59L1761.05 821.136L1771.2 821.136L1771.2 787.761L1761.05 787.761L1761.05 783.306L1775.92 783.306L1776.09 788.478Q1778.94 786.696 1784.09 784.914Q1789.26 783.133 1793.17 782.785L1794.15 782.785L1794.15 788.021L1793.17 788.021Q1789.52 788.304 1784.13 789.825Q1778.76 791.324 1776.09 792.932L1776.09 821.136L1790.32 821.136L1790.32 825.59L1761.05 825.59ZM1804.49 825.59L1804.49 821.136L1814.35 821.136L1814.35 787.761L1804.84 787.761L1804.84 783.306L1814.35 783.306Q1814.35 765.685 1827.43 765.685Q1831.72 765.685 1838.65 767.749L1837.58 772.181Q1830.74 770.226 1827.63 770.226Q1823.09 770.226 1821.07 773.398Q1819.07 776.549 1819.07 783.306L1836.97 783.306L1836.97 787.761L1819.07 787.761L1819.07 821.136L1837.15 821.136L1837.15 825.59L1804.49 825.59ZM1862.24 821.766Q1865.52 821.766 1869.39 819.68Q1873.28 817.572 1875.06 815.79L1875.06 805.209Q1869.17 804.774 1863.83 804.774Q1858.51 804.774 1855.83 807.034Q1853.16 809.294 1853.16 813.14Q1853.16 821.766 1862.24 821.766ZM1862.16 826.394Q1855.66 826.394 1851.92 823.07Q1848.19 819.723 1848.19 813.574Q1848.19 807.425 1852.27 804.057Q1856.38 800.581 1863.13 800.581Q1869.89 800.581 1875.06 801.124Q1875.06 793.193 1873.11 790.303Q1871.15 787.413 1865.18 787.413Q1859.22 787.413 1851.12 790.259L1849.77 785.805Q1858.05 782.785 1864.74 782.785Q1873.54 782.785 1876.65 786.696Q1879.78 790.607 1879.78 800.407L1879.78 819.093L1880.5 825.851L1875.95 826.307L1875.06 820.962Q1873.02 822.744 1869.26 824.569Q1865.52 826.394 1862.16 826.394ZM1923.65 784.74L1922.58 789.369Q1917.06 787.413 1912.35 787.413Q1905.94 787.413 1902.77 791.911Q1899.62 796.409 1899.62 804.426Q1899.62 812.423 1902.81 817.094Q1906.03 821.766 1912.35 821.766Q1916.63 821.766 1923.02 819.441L1924.45 823.895Q1917.96 826.394 1912.44 826.394Q1903.72 826.394 1899.1 820.571Q1894.47 814.726 1894.47 804.318Q1894.47 793.91 1898.99 788.347Q1903.53 782.785 1912.35 782.785Q1917.96 782.785 1923.65 784.74ZM1937.79 804.492Q1937.79 794.258 1942.03 788.521Q1946.27 782.785 1954.35 782.785Q1962.46 782.785 1966.41 788.13Q1970.39 793.454 1970.39 802.362L1970.1 806.817L1942.88 806.817Q1943.31 813.487 1946.42 817.637Q1949.55 821.766 1955.02 821.766Q1960.5 821.766 1967.89 819.18L1969.21 823.634Q1962.02 826.394 1955.7 826.394Q1946.96 826.394 1942.38 820.571Q1937.79 814.726 1937.79 804.492ZM1954.72 787.326Q1943.51 787.326 1942.88 802.362L1965.3 802.362Q1965.3 787.326 1954.72 787.326Z"/></svg>